<?xml version="1.0" encoding="utf-8"?>
<!-- Generator: Adobe Illustrator 16.0.0, SVG Export Plug-In . SVG Version: 6.00 Build 0)  -->
<!DOCTYPE svg PUBLIC "-//W3C//DTD SVG 1.1//EN" "http://www.w3.org/Graphics/SVG/1.1/DTD/svg11.dtd">
<svg version="1.1" id="Layer_1" xmlns="http://www.w3.org/2000/svg" xmlns:xlink="http://www.w3.org/1999/xlink" x="0px" y="0px"
	 width="1640px" height="2032px" viewBox="0 0 1640 2032" enable-background="new 0 0 1640 2032" xml:space="preserve">

<g id="districts">
	<g id="tn">
		<path fill="#D0E6CA" stroke="#FFFFFF" stroke-width="2" d="M797.825,1418.64c-4.04-2.85-8.154-2.6-12.84-2.88
			c-4.604-0.27-5.04-4.03-6.77-7.989c-1.86-4.261,0.735-10.396-4.16-13.221c-3.49-2.01-7.603,5.23-9.97,6.94
			c-7.03,5.06-5.5-4.79-6.354-7.86c-1.12-4.03-7.38-9.5-10.8-11.6c-11.891-7.29-29.09,1.83-41.188,3.396
			c-0.066-1.42-0.712-2.734-1.592-3.88c-7.96,0.94-15.17,3.33-18.104,10.86c-2.03,5.198,6.51,22.64-4.104,20.438
			c-6.34-1.314-6.64,2.854-11.979,4.554c-5.58,1.771-6.91,3.712-11.2,7.142c-4.46,3.562-11.54-1.41-16.2-2.05
			c-5.856-0.813-9.819,2.078-13.38,6.42c-8.92-4.74-18.97-5.23-28.85-5.25c-3.53-0.012-12.74,2-14.92-2.051
			c-2.82-5.271-0.104-9.939-6.845-12.635c-0.931-0.365-10.391-4.564-10.211-4.75c-3.13,3.135-13.13,7.186-17.47,7.104
			c-4.91-0.09-8.061-4.78-12.78-5.72c-11.72-2.32-6.01,12.938-11.96,15.484c-10,4.28-21.195-0.46-26.854,12.45
			c-2.41,5.49-0.54,10.271-6.092,14.24c-2.158,1.54-4.594,2.67-7.108,3.54c0,0.078-0.01,0.146-0.01,0.229
			c-0.29,0.021-0.592,0.053-0.882,0.08c-1.724,0.552-3.474,0.99-5.21,1.37c0.116-0.25,0.25-0.5,0.366-0.75
			c-8.75,1.521-17.88,5.29-23.944,11.603c0.92,0.897,1.789,1.853,2.539,2.922c-3.771,1.605-3.354,12.211-4.685,15.75
			c-3.238,8.601-13.09,1.065-15.1,8.641c-0.98,3.68-1.48,7.66-1.763,11.67c6.447,3.7,14.438,2.62,21.579,4.66
			c8.854,2.53,18.75,12.07,22.133,20.57c4.921,1.27,12.25-0.771,16.931-2.521c0.779-4.449,0.01-10.22,6.43-8.84
			c5.646,1.21,11.15,5.84,14.396,10.46c1.866,2.66,2.55,6.771,3.616,9.812c2.028,5.778,10.934,5.068,16.424,6.068
			c15.39,2.813,28.3,2.26,42.024,10.59c5.226,3.17,10.764,6.92,16.94,7.79c3.29,0.474,6.5-0.1,9.8,0.04
			c3.311,0.146,4.99,2.012,7.2,3.57c1.97-3.63,7.777-4.29,8.84,0.75c1.609,7.67,6.16,12.37,14.59,7.88
			c3.16-1.681,6.07-3.71,9.261-5.34c3.595-1.83,3.539-7.29,6.58-9.644c2.869-2.222,6.555-0.841,9.229-3.867
			c2.84-3.199,5.43-8.063,5.68-12.409c9.86,0.67,11.69-13.66,15.75-19.88c7.396-11.354,25.88-4.83,36.722-4.104
			c1.104,5.021,6.063,7.684,9.358,11.08c4.5,4.649,7.86,9.63,14.41,11.479c4.897,1.382,9.72,2.688,14.479,4.062
			c6.578-0.04,16.448,2.05,20.979-3.188c7.89-9.133,7.147-16.909,3.397-27.538c-4.313-12.239-12.763-10.395-23.197-8.813
			c-3.32,0.5-8.54,1.26-11.184-1.46c-3.142-3.24-1.119-9-7.369-8.63c-0.521-2.55,0.08-5.29,0.67-7.67
			c7.813-3.92,17.313,0.59,24.593-5.08c8.188-6.391,9.697-9.17,12.76-18.9c5.2-2.695,16.16,1.686,16.979-6.88
			c0.67-6.92-0.353-14.38,7-17.79c3.817-1.77,5.063-5.396,6.289-8.97C804.18,1428.74,803.39,1422.55,797.825,1418.64z"/>
		<path fill="#D0E6CA" stroke="#FFFFFF" stroke-width="2" d="M480.365,1452.26c6.5-13.41,16.69-25.17,24.4-37.84
			c3.979-6.54,5.41-14.36,9.25-20.938c2.898-4.976,8.71-6.173,12.63-10.021c9.72-9.54,9.54-26.81,15.68-38.319
			c3.45-6.459,3.884-9.438,9.96-13.891c3.53-2.58-0.92-8.818,4.465-9.03c4.471-0.18,4.615-11.39,4.971-14.229
			c0.72-5.95,1.104-9.32,5.52-13.433c0.87-0.813,1.24-1.709,1.37-2.657c-7-9.302-0.979-25.48-12.02-31.896
			c-11.36-6.6,9.89-10.656,13.5-11.79c1.06-4.14-5.36-8.88-7.186-12.446c-5.43-1.898-10.696-3.75-16.54-3.578
			c-6.615,0.195-9.51-2.69-15.39-3.99c-4.36-0.97-5.8,4.26-9.82,4.95c-5.396,0.93-9.8,3.31-14.188,6.5
			c-8.75,6.34-19.014,9.104-29.03,12.96c-6.24,2.396-10.35,0.25-15.95-2.422c-6.04-2.868-10.58-0.974-16.3,1.537
			c-9.37,4.109-24.38,5.174-36.148,1.015c-0.012,0-0.012,0-0.021,0.01c-6.06,1.46-9.21-0.563-13.8,4.64
			c-3.54,4-7.146,7.66-2.91,12.563c4.2,4.854,10.57,8.315,13.88,13.91c2.71,4.59,2.103,11.354,4.33,16.485
			c2.021,4.645,4.38,12.094,0.51,16.475c-4.97,5.619-10.16,8.605-13.6,15.908c-3.9,8.291,3.6,9.602,2.479,16.396
			c-0.89,5.4-4.354,10.24-0.274,15.38c5.35,6.74,0.06,5.45-0.04,11.896c-0.056,3.578-0.4,7.157-0.83,10.71
			c-0.62,5.02-5.09,5.52-6.46,10.67c-1.37,5.16-1.301,10.09-4.21,14.76c-5.813,9.32-14.804,20.313,1.22,21.521
			c2.45,6.552,12.229,8.012,18.15,9.438c10.354,2.51,14.18-3.08,23.05-5.47c2.64-0.71,3.12,9.54,7.56,4.449
			c1.99-2.279,4.25-6.569,7.771-3.895c1.564,5.98-3.92,10.61,0.52,16.36c2.684,3.47,6.48,5.85,9.59,8.897
			C462.489,1457.55,471.615,1453.78,480.365,1452.26z"/>
		<path fill="#D0E6CA" stroke="#FFFFFF" stroke-width="2" d="M755.72,1239.34c0.58,1.87,2.6,2.69,3.16,4.61
			c1.104,3.814-0.726,7.67-2.21,11.064c-4.78,10.87-9.976,22.66-24.37,18.854c-9.54-2.521-12.476-23.04-15.79-30.94
			c-5.5-13.12-15.69-8.659-27.17-7.25c-7.5,0.921-14.29,4.474-21.42,6.7c-6.28,1.97-7.556,9.42-12.29,13.141
			c-4.07,3.199-10.57,1.882-10.87,8.779c-0.29,6.71-2.49,9.36-9.51,9.94c-6.98,0.578-14.096-0.62-21.021,0.79
			c-6.46,1.314-12.35,5.1-18.57,7.237c-5.18,1.777-10.88,1.938-15.945,3.922c-1.859,0.729-9.145,7.865-9.659,7.381
			c-0.55-0.53-1.04-1.08-1.476-1.672c-0.13,0.946-0.484,1.842-1.365,2.656c-4.409,4.11-4.789,7.476-5.521,13.436
			c-0.35,2.85-0.49,14.06-4.97,14.229c-5.38,0.21-0.936,6.45-4.46,9.03c-6.07,4.45-6.5,7.42-9.96,13.891
			c-6.146,11.515-5.95,28.779-15.686,38.319c-3.92,3.851-9.729,5.05-12.63,10.021c-3.84,6.578-5.27,14.408-9.25,20.938
			c-7.71,12.67-17.89,24.42-24.396,37.84c-0.12,0.25-0.25,0.5-0.37,0.75c1.729-0.37,3.49-0.816,5.21-1.37
			c0.3-0.1,0.59-0.21,0.89-0.31c2.521-0.88,4.95-2,7.11-3.54c5.54-3.96,3.68-8.75,6.09-14.24c5.66-12.91,16.86-8.17,26.86-12.45
			c5.944-2.55,0.234-17.81,11.96-15.486c4.729,0.932,7.87,5.632,12.774,5.722c4.346,0.08,14.33-3.972,17.476-7.104
			c-0.19,0.186,9.274,4.383,10.21,4.75c6.734,2.69,4.01,7.37,6.84,12.633c2.18,4.063,11.39,2.053,14.92,2.053
			c9.88,0.026,19.93,0.52,28.85,5.25c3.563-4.354,7.53-7.23,13.381-6.421c4.659,0.641,11.739,5.618,16.199,2.051
			c4.29-3.433,5.62-5.37,11.2-7.145c5.351-1.695,5.642-5.855,11.98-4.551c10.604,2.2,2.064-15.238,4.1-20.438
			c2.93-7.53,10.15-9.936,18.11-10.86c-0.925-1.2-2.096-2.21-3.12-2.92c2.46-0.479,5.396-0.15,7.854-0.55
			c0.104-3,2.055-12.341,7.104-7.313c3.62,3.61,6.235,5.37,9.5,0.643c7.38-10.688,0.896-15.907-10.33-11.729
			c-2.95,1.104-14.185,0.604-9.38-5.021c4.314-5.063,9.92-5.183,15.89-6.709c6.53-1.672,9.62-5.422,16.95-5.063
			c3.13,0.15,6.318,0.42,9.45,0.431c4.619,0.021,8.09-3.011,12.43-4.025c10.4-2.45,12.85-11.87,21.15-18.67
			c2.116-1.74,10.17-3.87,13.05-4.594c5.95-1.5,12.29-2.222,17.71-5.327c11.33-6.5,5.63-15.563,0.18-23.555
			c-7.47-10.97,10.59-13.59,7.24-24.688c-3.9-12.94-18.72-6.771-22.92-19.33c-2.28-6.84,2.56-13.521,3.43-20.15
			c1.063-8.04,0.54-13.064-5.21-18.868c-2.42-2.446-4.34-5.696-5.74-9.312c-3.97,1.062-8.156,1.449-12.14,1.16
			c-4.35,10.31-1.57,22.75-9.78,31.528C765.029,1230.11,754.43,1235.19,755.72,1239.34z"/>
		<path fill="#D0E6CA" stroke="#FFFFFF" stroke-width="2" d="M819.711,1156.91c-5.636,5.86-3.676,5.33-4.306,12.649
			c-5.85,0.229-11.3,5.601-15.229,9.511c-3.46,3.43,2.91,8.354-0.13,10.67c-3.08,2.34-6.766,4.02-10.65,5.06
			c1.4,3.61,3.313,6.86,5.74,9.313c5.738,5.8,6.27,10.83,5.21,18.87c-0.88,6.63-5.71,13.314-3.431,20.146
			c4.188,12.57,19.011,6.396,22.921,19.33c3.35,11.104-14.726,13.721-7.24,24.69c5.438,7.985,11.146,17.04-0.181,23.55
			c-5.409,3.108-11.75,3.83-17.713,5.33c-2.892,0.729-10.932,2.85-13.052,4.59c-8.3,6.8-10.76,16.21-21.146,18.67
			c-4.343,1.021-7.813,4.05-12.436,4.03c-3.13-0.012-6.314-0.28-9.445-0.435c-7.319-0.355-10.423,3.385-16.949,5.063
			c-5.96,1.53-11.563,1.648-15.896,6.71c-4.8,5.62,6.436,6.12,9.385,5.021c11.235-4.181,17.71,1.039,10.326,11.729
			c-3.261,4.729-5.881,2.97-9.5-0.642c-5.051-5.028-7,4.312-7.101,7.312c-2.46,0.4-5.41,0.07-7.86,0.55
			c1.021,0.726,2.2,1.726,3.12,2.92c0.88,1.146,1.53,2.465,1.591,3.886c12.104-1.57,29.305-10.686,41.189-3.4
			c3.43,2.1,9.68,7.57,10.8,11.6c0.86,3.07-0.68,12.921,6.354,7.86c2.381-1.71,6.479-8.95,9.971-6.939
			c4.896,2.819,2.3,8.965,4.16,13.225c1.729,3.948,2.158,7.71,6.77,7.989c4.686,0.275,8.8,0.025,12.84,2.88
			c5.563,3.921,6.354,10.105,12.896,11.479c0.81,0.17,1.68,0.28,2.688,0.29c5.24,0.052,10.476-1.22,15.57,0.66
			c4.021,1.479,7.812,3.5,11.85,4.91c16.646,5.84,31.7,6.84,43.5,21.949c4.41-4.554,9.53-7.359,12.9-12.959
			c2.72-4.53,4.5-10.095,10.8-8.936c9.104,1.686,20.88,3.554,29.48-0.93c11.59-6.04-3.08-20.75-4.593-27.47
			c-0.712-3.354,2.383-7.604,0.367-10.98c-2.27-3.83-13.33-1.54-16.85-1.76c-0.271-0.4-0.16-1.32-0.21-1.79
			c-4.021-1.431-2.49-20.181-3.3-23.86c-1.23-5.565,0.618-10.736-0.42-16.09c-0.804-4.12-4.186-6.75-6.271-10.16
			c6.313-10.18,23.604-2.46,33.19-1.896c-0.28,5.329,4.619,9.27,4.97,14.59c0.32,4.84-0.12,8.698,3.45,12.39
			c7.26,7.49-1.15,8.803-2.13,15.98c7.67,1.078,16.42-4.771,24.368-5.16c1.262-6.65-2.021-13.33-2.818-19.84
			c-0.563-4.594-0.393-10.11-2.854-14.21c2.094-3.03,6.094-3.74,8.278-6.671c1.83-2.449,2.66-5.739,4.9-7.895
			c4.77-4.56,11.58-6.18,17.54-8.55c3.157-1.26,6.96-2.4,9.27-4.771c1.2-1.222,2.014-2.771,2.11-4.852
			c0.22-4.489,0.22-9.75-4.5-11.91c-6.563-3-25.721-4.67-21.99-16.51c1.69-5.37,6.03-10.55,10.49-13.894
			c3.58-2.682,11.02-4.646,5.646-10c-4.938-4.92-12.762-0.642-18.066-5.709c-4.44-4.25-7.521-7.711-14.012-5.397
			c-5.869,2.09-10.238-2.063-15.858-3.239c-5.78-1.209-6.08-4.671-8.063-9.566c-1.407-3.5-7.521-11.989-12.132-7.979
			c-3.235,2.82-2.938,8.17-5.288,11.603c-2.488,3.63-9.7,1.619-13.062,0.897c-6.7-1.448-9.17-0.8-13.359,4.012
			c-11.841-1.342-1.317-23.479-11.896-25.012c-0.763-3.738,0.641-8.51-2.289-11.568c-3.514-3.67-9.24-3.301-13.44-5.606
			c-2.81-1.54-7.1-4.684-8.75,0.141c-1.89,5.5-4.698,5.989-9.54,8.609c-5.448,2.947-16.67,25.96-23,19.25
			c-8.688-9.21-0.438-21.24,6.29-27.854c4.631-4.552,5.271-11.302,3.82-17.421c-1.41-5.938-6.36-5.561-8.644-9.646
			c-2.5-4.49,2.938-7.58,2.604-11.9C828.14,1163.729,824.149,1159.88,819.711,1156.91z"/>
		<path fill="#D0E6CA" stroke="#FFFFFF" stroke-width="2" d="M236.96,862.96c6.17-1.86,8.42-5.24,13.521-8.479
			c6.104-3.87,13.935-2.386,20.04-6.016c8.813-5.229-5.16-22.438,12.854-22.938c6.646-0.19,12.601,1.34,19.188-0.726
			c4.76-1.484,9.29-3.88,13.63-6.5c0.021-3.364-1.311-6.827-0.37-10.13c1.265-4.408,6.75-4.85,9.975-7.188
			c-2.511-4.91-7.029-15.49-1.899-19.94c7.06-6.12,1.42-14.59-3.67-19.646c-12.479-12.42-31.95-5.936-47.21-12.73
			c-0.711-0.318-1.391-0.67-2.04-1.04c-3.188,1.763-6.351,0.46-11.279-1.56c-7.688-3.15-15.841-5.07-24.011-6.44
			c-11.605-1.938-27.141-4.21-36.551,4.79c-6.869-1.95-15.819-3.12-20.989-8.56c-4.63-4.88-5.91-13.726-9.891-19.4
			c-5.09-7.27-9.08-14.97-18.063-8.22c-5.42,4.065-13.311,7.85-17.851,12.76c2.381,2.71,0.07,10.352-0.71,13.313
			c-4.59-2.278-12.601-2.184-15.989,2.188c-2.92,3.76-2.061,10.19-6.21,13.01c-5.051,3.436-16.061-2.71-17.511,5.686
			c-6.26-1.03-7.063-0.61-9.5-6.631c-3.25-0.949-12.563,2.54-15.33,3.979c-0.18,2.87-0.84,5.8,0.881,8.34
			c0.93,1.063,1.63,2.25,2.103,3.57c0.132,3.2-3.479,4.55-3.198,8.29c0.67,8.979-4.319,14.319,5.896,16.96
			c9.649,2.5,19.189,7.22,28.975,10c10.59,3,20.01,7.57,29.405,13.25c5.015,3.03,10.961,3.85,16.015,6.79
			c3.93,2.29,7.141,5.91,10.641,8.78c2.67,2.18,10.17,4.93,11.25,8.33c0.8,2.52-1.771,7.47-2.53,9.789
			c-3.63,11.141-9.311,14.431-19.771,18.351c-6.47,2.43-14.813,2.64-13.609,12.28c0.449,3.6,7.949,17.229,10.979,7.47
			c3.21-10.36,10-1.57,16.29,1.05c4.688,1.96,10.775-1.41,15.565-1.87c4.67-0.446,9.49-0.276,14.063,0.813
			c9.88,2.354,15.49-1.32,23.938-6.07c3.79-2.13,8.842-9.319,12.28-7.229C229.17,867.84,232.1,864.42,236.96,862.96z"/>
		<path fill="#D0E6CA" stroke="#FFFFFF" stroke-width="2" d="M591.091,554.13c4.854-2.71,6.409-18.62,7.34-23.53
			c1.79-9.47,12.72-7.654,17.53-14.26c4.869-6.7,1.35-16.21,1.79-23.75c0-0.05,9.97,2.13,10.688,2.29c5.03,1.09,8.9,1.07,12.3-3.62
			c3.476-4.79,3.146-10.92,6.08-15.76c3.84-6.33,3.16-6.67,3.22-13.7c-5.05-1.82-13.1-8.71-12.896-14.45
			c0.31-8.94-4.66-8.97-9.46-16.08c4.646-0.8,10.39-0.48,15.18-0.17c0.78,2.28,2.01,4.25,2.9,6.45c5.37,0.94,8.315-4.72,14.43-3.77
			c0.98,2.41,2.9,4.48,5.33,5.33c-0.93,5.53,6.93,6.08,10.13,8.67c3.23-7.93,12.8-2.59,13.41,4.45c11.79,0.76,16.38,8.7,19.24,19.28
			c1.84,6.813,7.75,8.95,11.447,14.29c2.853,4.11,8.197,3.476,12.577,5.29c0.58-2.564,3.62-3.39,5.806-3.21
			c0.354,8.79,2.6,9.2,7.5,15.771c2.02,2.71,2.42,6.234,4.63,8.83c1.89,2.21,4.814,3.06,6.524,5.47
			c3.75-9.99,15.936,2.688,20.7-2.22c2.42,3.694,2.49,8.47,4.8,12.234c2.83,4.62,9.86,2.98,13.94,5.82
			c-1.811,2.47-7.09,2.58-4.479,6.42c2.146,0.313,6.512,2.021,8.632,0.74c2.479-1.49,2.88-4.88,5.93-5.313
			c9.8-1.354,16.49,12.5,17.42,19.91c3.4,0.12,6.29,0.32,9.271,1.53c3.143-5.55,5.447-20.97,15.933-14.66
			c3.95-3.18,5.81-3.67,9.938-5.33c0.462,15.63,9.99,5.32,18.726,6.432c0.024-1.222,0.55-2.562,1.197-3.521
			c2.817-4.12,7.382-0.95,9.817-6.67c1.183-2.76,3.57-7.94,1.58-10.67c-1.811-2.5-1.99-3.91-0.8-5.222
			c-1.32-1.271-2.83-2.318-4.71-2.962c-5.263-1.776-14.36,0.818-17.801-4.776c4.591-4.74-0.479-15.9,2.841-21.25
			c0.55-0.09,1.105-0.17,1.659-0.23c3.446-10.26-19.813-19.92-26.895-22.05c-4.06-1.22-9.96-2.81-13.89-0.438
			c-1.8,1.076-5.341,5.021-7.644,4.688c-6.356-0.896-4.646-13.38,0.108-15.42c-3.394-7.34-12.03-6.73-15.47-12.63
			c-3.434-5.89-1.42-14.69-1.65-21.16c-0.33-9.25-1.159-21.06-4.608-29.71c-0.222-0.55-0.46-1.08-0.71-1.6
			c-7.729-0.73-15.276-2.76-21.396-7.23c-5.313-3.88-11.979-4.21-17.69-7.32c-6.27-3.41-9.97-5.97-16.979-7.42
			c0.54-6.52,3.6-8.36,0.659-15.39c-1.803-4.3-2.883-7.39-7.739-8.54c-5.729-1.36-11.05-4.02-16.79-5.37
			c-4.71-1.11-9.11-1.24-12.97-4.55c-8.521-7.3-14.98-14.771-25.28-20.2c-11.97-6.31-14.55,10.55-15.04,18.93
			c-6.479,2.42-14.771-11.49-19.352-14.55c-5.934-3.97-3.672,5.6-8.738,5.18c-3.19-0.26-9.03-4.46-6.262-8.25
			c2.762-3.79,7.092-7.62,0.352-11.14c-4.3-2.24-9.109,0.62-13.24,1.87c-5.04,1.52-10.369,1.15-15.197,3.55
			c-3.617,1.8-5.813,6.49-10.407,6.1c-1.104,3.59,2.59,7.82,2.188,11.75c-0.33,3.3-1.527,6.54-2.89,9.54
			c-2.723,6.02-6.88,11.67-8.28,18.22c-1.029,4.79-0.45,14.46-5.779,17.02c-5.021,2.4-7.907,1.97-12.711,1.45
			c-3.76,11.3-13.71,3.08-19.484,0.34c-8.7-4.12-13.813,3.56-21.54,5.68c-0.65,10.1-3.186,19.27-5.383,29.16
			c-2.25,10.13-0.723,13.03,5.107,20.37c4.37,5.5,0.47,10.97,8.59,14.83c6.36,3.03,3.38,9.9,2.08,15.53
			c-1.76,7.6-0.66,16.229-5.34,22.89c-4.38,6.23-11.49,9.13-16.648,14.476c-4.646,4.81-7.75,15.814-15.688,14.646
			c-8.87-1.3-16.103,2.29-19.29,11.3c-1.24,3.5,0.88,2.556,2.3,5.87c1.3,3.063-0.21,5.86,3.145,8.271
			c6.735,4.84,18.188-2.304,25.479-2.896c9.2-0.734,18.852,0.65,27.55,3.69c7.49,2.62,15.881,1.52,23.131,4.97
			c3.13,1.49,5.88,3.78,8.17,6.5c0.132-0.04,0.25-0.09,0.382-0.13C577.035,547.06,585.447,557.28,591.091,554.13z"/>
		<path fill="#D0E6CA" stroke="#FFFFFF" stroke-width="2" d="M897.091,611.55c-1.41-8.21,4.234-20.604,7.09-27.96
			c1.92-4.96,8.64-15.35,6.854-20.63c-2.77-8.23-14.02,1.95-18.074,3.65c-4.58-7.056-9.813-3.71-17.211-5.226
			c-0.185-5.21,6.181-8.688,4.325-14.938c-1.864-0.29-2.5-1.521-2.46-2.92c-8.729-1.104-18.26,9.194-18.72-6.436
			c-4.13,1.65-5.99,2.15-9.938,5.33c-10.479-6.31-12.789,9.11-15.935,14.66c-2.979-1.21-5.87-1.41-9.27-1.53
			c-0.936-7.42-7.61-21.27-17.421-19.908c-3.063,0.424-3.449,3.818-5.935,5.313c-2.12,1.27-6.479-0.43-8.63-0.74
			c-2.606-3.84,2.67-3.95,4.479-6.42c-4.079-2.84-11.104-1.2-13.939-5.82c-2.311-3.77-2.38-8.54-4.8-12.234
			c-4.771,4.91-16.95-7.771-20.7,2.22c-1.71-2.41-4.64-3.26-6.53-5.47c-2.21-2.59-2.604-6.12-4.63-8.83
			c-4.896-6.57-7.13-6.98-7.5-15.771c-2.188-0.17-5.22,0.646-5.8,3.21c-4.38-1.814-9.729-1.17-12.58-5.29
			c-3.7-5.34-9.62-7.479-11.45-14.29c-2.854-10.59-7.438-18.52-19.236-19.278c-0.608-7.04-10.188-12.38-13.408-4.45
			c-3.2-2.58-11.063-3.14-10.131-8.67c-2.435-0.85-4.359-2.92-5.329-5.33c-6.11-0.95-9.063,4.71-14.436,3.77
			c-0.89-2.2-2.117-4.17-2.896-6.45c-4.79-0.31-10.53-0.64-15.185,0.17c4.813,7.11,9.771,7.14,9.462,16.08
			c-0.198,5.74,7.853,12.62,12.897,14.45c-0.062,7.03,0.62,7.37-3.221,13.7c-2.939,4.84-2.609,10.972-6.08,15.76
			c-3.399,4.69-7.279,4.712-12.3,3.62c-0.724-0.158-10.689-2.34-10.689-2.29c-0.438,7.54,3.08,17.063-1.79,23.75
			c-4.811,6.61-15.737,4.79-17.528,14.265c-0.932,4.905-2.479,20.815-7.342,23.525c-5.64,3.146-14.05-7.08-21.438-5.064
			c-0.13,0.039-0.25,0.09-0.38,0.13c3.521,4.17,5.971,9.37,7.13,14.354c1.971,8.48,5.729,9.766-0.25,17.79
			c-4.42,5.94-10.854,10.65-14.029,17.435c-2.67,5.681-7.551,15.851-8.2,23.141c2,2.53,3.96,4.891,8.26,5.1
			c4.425,0.226,9.07,0.266,13.23,1.95c5.01,2.04,5.54,7.44,11.568,7.94c11.511,0.949,23.091-0.29,34.62,0.938
			c8.486,0.91,19.182,8.9,27.42,6.54c3.438-0.988,5.656-4.18,8.736-5.83c4.32-2.3,9.17-0.025,13.65-2.46
			c9.67-5.25,20.35-6.949,30.55-10.737c10.899-4.063,20.51-4.328,32.029-4.328c3.105,0,6.88-0.805,9.96-0.305
			c5.58,0.921,0.989,6.83,0.449,9.54c4.771-0.157,9.276,1.185,11.08,6.063c1.316,3.58,3.471,6.31,7.579,3.42
			c2.357-1.66,6.771-7.74,10.147-4.65c2.489,2.271,1.761,6.512,4.409,8.69c1.891-1.881,7.92-3.46,10.601-2.671
			c-0.157,5.775,1.132,7.051-2.261,11.75c-2.46,3.407-3.17,6.729-3.641,10.851c-0.529,4.66-3.319,9.313-6.552,12.63
			c-2.092,2.15-6.868,5.65-6,9.223c6.722,5.617,18.438-13.923,21.147-18c2.409-3.618,4.25-10.33,8.432-12.158
			c6.159-2.689,10.688,8.947,14.854,11.961c10.8,7.84,29.779,13.05,41.5,4.46c5.641-4.131,9.75-10.07,15.979-13.436
			c1.961-1.06,4.211-1.906,6.514-2.46c-0.33-0.14-0.689-0.27-1.109-0.367c-2.779-5.433,5.771-8,9.351-9.143
			c3.764-1.188,7.631-1.04,11.395-2.05c2.92-0.79,5.238-2.9,8.238-3.48c3.222-4.47-2.528-10.064-3.093-14.536
			c-0.486-3.934-1.606-7.563-1.37-10.974C899.341,615.44,897.591,614.479,897.091,611.55z"/>
		<path fill="#D0E6CA" stroke="#FFFFFF" stroke-width="2" d="M1074.051,213.36c-10.69,6.53-13.75,21.87-17.11,32.94
			c-5.68,1.09-11.33-1.75-16.95-0.33c-4.04,1.021-7.09,5.05-10.979,5.3c-6.66,0.43-16.854-4.73-23.15-7.05
			c-4.04-1.49-4.96-6.51-9.16-7.35c-4.27-0.86-8.774-0.23-13.104-0.8c-9.976-1.33-12.13,3.03-12.67,12.25
			c-4.91,1.81-6.563-5.47-8.44-8.33c-3.54-5.41-11.62-2.26-16.87-3.42c-5.29-1.18-10.479-3.86-15.21,0.2
			c-4.51,3.86-8.854,6.43-14.854,3.7c-2.976-1.35-7.5-6.28-9.53-1.46c-2.45,5.84-3.42,12.18-9.063,16.01
			c-2.461,1.67-4.381,2.91-7.445,2.99c-2.92,0.07-5.03-2.81-7.725-0.28c-3.79,3.55-4.896,4.96-10.195,5.35
			c-0.73,3.01,2.75,7.53,4.13,9.95c2.938,5.11,2.396,7.83-0.25,12.98c-2.53,4.93-5.9,9.64-7.935,14.79
			c-2.051,5.19-0.855,10.82-1.525,16.21c-0.69,5.53,0.17,11.49-3.2,16.35c-3.021,4.36-7.86,7.8-11.3,11.92
			c-2.313,2.77-5.48,2.09-5.555,6.71c0.289,2.38,0.595,4.76,0.895,7.15c-0.021,1.71-3.854,5.84-3.771,6.29
			c-1.131-5.69-4.131-10.01-10.5-9.34c-0.276,5.97-0.851,11.39-2.141,17.23c-10.17,3.79-9.38,6.68-12.03,16.5
			c-5.646,0.45-11.76,0.67-17.77,0.1c0.25,0.52,0.485,1.06,0.71,1.6c3.448,8.65,4.277,20.45,4.604,29.71
			c0.24,6.47-1.774,15.26,1.65,21.16s12.08,5.29,15.47,12.63c-4.76,2.04-6.47,14.52-0.104,15.42c2.3,0.33,5.84-3.61,7.64-4.69
			c3.931-2.37,9.83-0.78,13.891,0.44c7.08,2.13,30.345,11.79,26.895,22.05c-0.55,0.06-1.11,0.14-1.66,0.229
			c-3.319,5.36,1.75,16.516-2.84,21.25c3.438,5.61,12.54,3,17.8,4.78c1.88,0.64,3.4,1.68,4.71,2.96c0.61-0.68,1.591-1.34,2.9-2.11
			c8.3-4.85,11.771-16.979,16.18-24.84c6.101-10.85,12.74-21.396,17.17-33.07c9.13-24.08,21.091-47.28,33.229-69.98
			c5.5-10.28,8.882-14.7,20.79-11.85c6.066,1.45,22.92,5.93,22.078-5.83c6.063-0.41,10.528-1.26,14.184-6.47
			c3.408-4.86,5.021-10.25,12.09-9.58c3.03,0.29,3.761-1.41,6.3-2.42c4.9-1.94,10.313-1.79,15.479-1.69
			c7.066,0.14,15.761,5.13,22.271,3.8c0.7-4.85,0.021-10.06,0.354-14.98c7.396-0.68,9.5-10.8,18.021-6.15
			c-4.011,3.83-0.83,4.69,2.829,5.59c5.271,1.31,4.841,6.08,5.147,10.35c7.777,0.21,14.813,8.27,20.198,13.11
			c7.569,6.81,6.569-3.94,12.933-2.91c1.646,9.01-9.788,15.24-7.688,24.84c0.602,2.76,2.63,6.3,5.959,6.03
			c5.211-0.41,3.78-7,8.36-8.64c8.79-3.16,14-3.72,14.987-14.57c0.438-4.85-0.078-9.85,1.027-14.62c1.303-5.65,4.32-11.03,3.2-17.01
			c-0.59,0.04-1.13-0.1-1.63-0.41c-2.03-6.06-4.78-7.24-1.271-14.03c3.229-6.26,4.265-13.38,5.265-20.27
			c11.77-1.65,21.51,7.67,31.537,14.66c0.479-0.64,0.963-1.29,1.438-1.95c3.21-4.49-0.91-7.69,0.58-12.43
			c1.54-4.92,7.63-6.06,12.08-5.79c1.68-3.22,13.986-8.22,18-8.68c1.05-5.89-1.359-9.06,4.67-12.85c4.392-2.75,9.38-4.38,14.12-6.41
			c4.79-2.06,14.22-11.75,21.25-13.58c-0.12-0.58-0.224-1.15-0.304-1.729c-0.721-5.17,3.648-9.6-3.301-12.42
			c-4.42-1.79-9.396-1.54-14.066-1.66c-0.399-6.01,0.197-11.04-2.439-16.56c-1.566-3.28,5.9-4.12,6.262-8.03
			c0.529-5.63-13.938-3.86-17.119-4.7c-1.021-2.67-2.182-5.2-2.897-7.82c-2.67-0.2-7.562,1.09-8.75-2.38
			c-0.648-1.89-0.55-3.83-3.021-4.31c-3.802,6.02-0.869,14.23-5.198,19.89c-1.474,1.92-11.224,3.14-13.5,2.94
			c0.01,2.02,0.01,4.23-0.354,6.17c-2.602,0.52-6.979,0.84-9-1.35c-1.278-1.38-0.722-4.04-2.271-4.94
			c-4.569-2.65-14.28-3.09-19.42-2.3c-6.063,0.93-8.146,12.27-14.563,10.35c-4.76-1.42-6.63-9.17-12.396-8.08
			c0.607,3.77-2.593,5.68-2.83,9.07c-0.279,4.1,4.892,5.7,7.091,8.18c6.63,7.48-18.08,7.34-20.529,7.16
			c-7.171-0.51-23.938-0.74-26.688-9.66c-0.608-1.97-0.198-4.32,0.527-6.7c-2.777-2.78-5.141-6.31-6.171-7.81
			C1088.197,209.71,1080.131,209.65,1074.051,213.36z"/>
		<path fill="#D0E6CA" stroke="#FFFFFF" stroke-width="2" d="M1159.75,299.74c-1,6.89-2.021,14.01-5.265,20.27
			c-3.51,6.8-0.76,7.98,1.271,14.03c0.5,0.31,1.04,0.45,1.63,0.41c1.13,5.98-1.895,11.36-3.2,17.01c-1.1,4.77-0.58,9.78-1.03,14.62
			c-0.984,10.86-6.194,11.41-14.984,14.57c-4.58,1.65-3.146,8.23-8.36,8.64c-3.33,0.26-5.35-3.27-5.96-6.03
			c-2.1-9.6,9.34-15.84,7.689-24.84c-6.369-1.03-5.369,9.71-12.935,2.91c-5.38-4.84-12.42-12.89-20.199-13.11
			c-0.315-4.28,0.119-9.05-5.146-10.35c-3.66-0.91-6.84-1.76-2.83-5.59c-8.51-4.65-10.609,5.47-18.021,6.15
			c-0.325,4.92,0.354,10.14-0.351,14.98c-6.51,1.33-15.199-3.66-22.271-3.8c-5.158-0.1-10.578-0.25-15.479,1.69
			c-2.54,1.01-3.271,2.71-6.3,2.42c-7.07-0.67-8.681,4.72-12.09,9.58c-3.65,5.21-8.12,6.06-14.186,6.47
			c0.845,11.76-16.01,7.28-22.08,5.83c-11.896-2.85-15.287,1.57-20.787,11.85c-12.143,22.7-24.103,45.9-33.229,69.98
			c-4.43,11.68-11.07,22.22-17.17,33.07c-4.41,7.85-7.88,19.98-16.18,24.84c-1.32,0.771-2.29,1.436-2.9,2.11
			c-1.18,1.32-1.01,2.729,0.8,5.22c1.99,2.74-0.396,7.92-1.58,10.67c-2.438,5.72-7,2.55-9.816,6.67
			c-0.658,0.96-1.184,2.3-1.198,3.521c-0.03,1.396,0.6,2.64,2.46,2.92c1.84,6.24-4.521,9.729-4.33,14.938
			c7.41,1.516,12.63-1.84,17.21,5.226c4.061-1.7,15.311-11.896,18.08-3.65c1.78,5.28-4.939,15.67-6.86,20.63
			c-2.85,7.354-8.5,19.763-7.09,27.96c0.5,2.92,2.25,3.883,4.53,3.83c4.83-0.12,12.068-4.815,15.06-5.197
			c6.66-0.857,13.344-1.563,19.921-2.893c6.593-1.33,12.632-4.71,19.132-5.95c5.857-1.119,12.229,0.343,17.487-3.146
			c4.131-2.74,6.71-7.131,10.29-10.461c4.45-4.149,12.091-5.053,17.82-6.229c11.37-2.34,3.729,3.729,11.79,9.03
			c6.646,4.37,16.979-8.38,18.55,3.33c1.729,12.896,10.33,2.79,16.05-0.854c3.09-1.97,6.07,0.212,9.301,0.66
			c5.659,0.79,9.189-3.71,14.079-5.487c8.08-2.947,11.66-3.053,18.21-9.013c4.07-3.698,11.513-8.26,5.4-13.31
			c-2.979-2.475-22.36-7.66-15.682-14.11c2.236-2.16,6.222-1.79,8.106-3.97c3.188-3.71-0.647-10.521-0.14-14.76
			c1.3-10.79,3.02-22.04,9.43-30.65c-2.14-4.91-25.68-1.68-22.68-11.938c13.525-1.157,1.578-25.407,5.066-32.313
			c6.644-13.11,35.448-2.23,45.698-2.35c11.052-0.13,16.33,6.28,23.143,13.951c6.433,7.25,14.938,9.659,22.947,14.5
			c4.32,2.609,8.394,0.439,12.514-1.396c4.052-1.813,7.209-0.771,11.392-0.16c8.229,1.2,13.68-0.979,20.66,3.84
			c1.43,0.99,2.63,1.41,3.657,1.42c5.067,0.063,6.107-9.896,10.118-13.3c4.541-3.85,3.439-10.52,9.813-13.42
			c4.33-1.97,9.38-1.79,14-2.46c1.39-9.56-3.84-15.11-4.47-23.75c-0.385-5.24,8.81-6.92,12.024-9.15c-3.89-2.75-7.21-3.53-11.88-3.6
			c0.67-6.89-5.14-11.99-4.87-19.15c-6.76-0.44-13.694,0.24-20.47-0.2c-2.568-7.85-1.271-11.94-8.729-17.42
			c2.396-4.02,3.811-7.82,5.381-12.38c7.02,1.95,12.369-2.74,18.75-4.62c3.188-0.94,8.34-0.72,10.479-3.76
			c3.051-4.31-1.05-9.189,0.9-13.55c0.479-1.08,5.88-4.21,5.688-4.9c-0.656-2.33-21.01-8.86-17.229-12.58
			c-3.7,3.64-8.801,6.09-13.78,3c-2.12-1.32-0.99-3.98-1.29-5.98c-1.22-8.05-11.061-8.35-17.27-9.37
			c-5.131-0.85-9.94-3.63-14.69-6.939C1181.27,307.41,1171.52,298.09,1159.75,299.74z"/>
		<path fill="#D0E6CA" stroke="#FFFFFF" stroke-width="2" d="M445.671,1251.72c5.72-2.51,10.26-4.41,16.3-1.54
			c5.6,2.66,9.71,4.82,15.95,2.42c10.02-3.854,20.29-6.62,29.024-12.96c4.4-3.188,8.801-5.564,14.19-6.5
			c4.02-0.688,5.46-5.91,9.817-4.944c5.883,1.31,8.771,4.188,15.393,3.984c5.84-0.17,11.105,1.686,16.54,3.58
			c1.81,3.57,8.239,8.32,7.18,12.45c-3.604,1.14-24.87,5.188-13.5,11.79c11.04,6.42,5.03,22.6,12.021,31.89
			c0.438,0.58,0.93,1.146,1.47,1.67c0.52,0.49,7.8-6.646,9.66-7.38c5.064-1.984,10.76-2.14,15.945-3.92
			c6.225-2.14,12.109-5.92,18.569-7.239c6.92-1.421,14.03-0.221,21.021-0.791c7.012-0.575,9.212-3.229,9.512-9.938
			c0.3-6.9,6.79-5.58,10.87-8.78c4.729-3.72,6.01-11.17,12.29-13.14c7.13-2.24,13.92-5.78,21.42-6.7
			c11.479-1.41,21.67-5.87,27.17,7.25c3.31,7.91,6.238,28.42,15.79,30.94c14.408,3.81,19.6-7.98,24.368-18.854
			c1.487-3.39,3.316-7.25,2.212-11.065c-0.563-1.924-2.58-2.729-3.16-4.609c-1.29-4.141,9.31-9.22,11.771-11.853
			c8.21-8.777,5.42-21.209,9.779-31.527c-1.43-0.104-2.84-0.28-4.2-0.563c4.436-13.92-3.024-20.16-14.646-26.01
			c-1.16-5.01,3.09-8.17,5.27-12.063c2.53-4.513,2.551-9.938,1.73-14.893c-6.685-0.3-11.435-5.88-17.9-6.84
			c-7.04-1.04-9.76,0-15.68-4.811c-9.82-7.979-8.842-14.854-0.975-23.521c-0.405-0.84-0.92-1.62-1.775-2.16
			c-2.2-1.37-5.62-0.88-8.03-0.83c-6.37,0.12-8.42-2.829-13.271-6.05c-0.461-4.1,3.448-7.641,5.33-10.891
			c1.078-1.859,0.634-4.771,2.134-6.069c2.43-2.11,0.734-6.09-0.11-8.58c-1.65-4.85-0.03-8.22,0.61-12.97
			c0.55-4.142-1.604-7.931-1.44-12.03c0.15-3.76,3.74-5,5.07-8.14c1.63-3.854-0.7-8.063,0.229-12.013
			c0.92-3.893,4.17-5.907,6.854-8.5c-2.82-4.527-10.9-4.771-15.17-2.657c-5.23,2.58-5,6.51-7.936,10.979
			c-2.274,3.472-7.064,10.592-11.698,10.37c-5.062-0.24-10.132-4.521-15.75-4.91c-5.711-0.39-13.211,0.053-17.432,4.5
			c-5.09,5.36-4.58,3.41-12.146,4.37c-4.672,0.604-5.936,5.933-0.53,6.4c7.22,0.63,14.396-1.29,21.62-1
			c1.195,8.146,1.524,25.43-10.313,24.028c-0.21,2.946-0.02,6.012-0.199,8.979c-10.641,0.01-21.229-2.55-31.896-2.101
			c-7.49,0.311-11.13,9.921-16.93-0.199c-1.82-3.183-2.976-7.142-5.66-9.74c-1.79-1.729-5.61-0.817-6.86-2.68
			c-0.35-0.521-0.58-1.04-0.699-1.563c-4.697,1.16-9.271,3.37-12.79,6.16c-5.091,4.03-8.591,9.521-15.905,8.67
			c-0.423-7.51,4.729-19.76-1.16-26.06c-7.36-7.88-12.723,5.58-15.15,10.42c-5.737,11.46-18.88,3.38-28.64,6.09
			c-10.04,2.79-12.29,14.32-24.183,13.92c-5.723-0.188-9.777-5.93-15.79-3.38c-5.063,2.149-7.922,7.149-13.46,8.569
			c-0.603,0.146-1.212,0.301-1.817,0.445c-4.57,1.146-9.145,2.49-9.34,8.32c-0.21,6.12-0.48,8.54-6.186,11.271
			c-3.05,1.464-8.024,8.104-3.237,10.684c3.093,1.66,9.643,0.729,11.397,4.68c0.853,1.9-7.21,6.36-8.729,7.29
			c-3.41,2.104,0.229,10.78,1.289,13.171c-7.563,5.819-30.159-11.737-19.029,9.384c4.479,8.5,1.63,19.141,4.5,28.431
			c1.96,6.33,4.06,20.688,1.97,26.97c-5,1.19-8.567,4.66-12.688,7.46c-1.843,1.25-3.813,2.12-5.843,2.78
			c0.617,2.398-0.027,5.6-0.369,7.46c-0.979,5.28-4.131,24.71-10.184,26.21C421.279,1256.89,436.301,1255.84,445.671,1251.72z"/>
		<path fill="#D0E6CA" stroke="#FFFFFF" stroke-width="2" d="M855.711,671.82c-11.726,8.58-30.7,3.37-41.5-4.46
			c-4.16-3.021-8.69-14.66-14.854-11.96c-4.18,1.824-6.02,8.54-8.43,12.154c-2.71,4.08-14.434,23.62-21.15,18
			c-0.87-3.56,3.91-7.064,6-9.22c3.23-3.32,6.03-7.979,6.55-12.63c0.476-4.12,1.186-7.43,3.646-10.85
			c3.396-4.712,2.1-5.98,2.26-11.75c-2.68-0.79-8.71,0.788-10.6,2.67c-2.65-2.186-1.92-6.42-4.41-8.69
			c-3.38-3.09-7.8,2.99-10.15,4.65c-4.104,2.89-6.26,0.158-7.58-3.42c-1.8-4.883-6.314-6.226-11.08-6.063
			c0.53-2.71,5.132-8.62-0.444-9.54c-3.08-0.51-6.854,0.29-9.96,0.303c-11.521,0-21.12,0.271-32.03,4.327
			c-10.2,3.806-20.87,5.49-30.55,10.74c-4.48,2.433-9.32,0.16-13.65,2.46c-3.08,1.646-5.3,4.84-8.74,5.83
			c-8.237,2.36-18.938-5.63-27.42-6.54c-11.53-1.229-23.105,0.011-34.62-0.938c-6.026-0.5-6.56-5.9-11.564-7.94
			c-4.16-1.688-8.82-1.729-13.23-1.95c-4.3-0.21-6.26-2.564-8.26-5.1c-0.09,1.04-0.103,2.02,0,2.91
			c-2.47,0.396-4.95,0.814-7.42,1.234c1.31,1.44,2.63,2.886,3.438,4.69c1.939,4.38,0.563,16.82-1.117,20.96
			c-2.054,5.04-4.368,9.97-6.158,15.12c-2.12,6.08-0.2,5.67,5.88,5.66c7.271-0.021,14.38,0.447,13.817,9.56
			c-0.607,10-5.683,18.74-5.393,28.974c0.19,6.592-4.438,21.352,3.29,25.146c5.3,2.61,12.229-2.14,17.142-3.771
			c1.303,6.867-5.776,15.471-2.276,21.381c3.68,6.196-1.171,5.696-3.95,10.236c-3.09,5.054-1.78,12.408-4.563,18.021
			c-1.196,2.42-6.131,7-6.486,9.22c-0.04,0.28-0.04,0.55-0.021,0.813c0.33-0.399,0.82-0.779,1.563-1.17
			c8.276,2.616,12.539,8.471,22.565,6.521c0.159-2.75,0.029-5.58,0.199-8.31c7.183-0.61,5.82,8.1,10.78,9.896
			c4.42,1.61,5.021-12.31,9.64-7.46c3.131,3.29,1.515,8.15,5.555,10.854c3.565,2.391,8.735,2.315,12.655,4.405
			c13.16,7.03,8.771-11.43,18.145-11.6c11.87-0.21,11.065-7.75,13.75-16.99c2.261-7.776,12.631-5.447,18.815-4.85
			c3.83,0.37,9.475,1.43,12.74-1.32c2.182-1.84,3.32-4.66,6.221-5.479c10.409-2.939,21.67,0.061,32.014-3.659
			c3.896-1.41,7.141-4.521,11.158-5.55c4.357-1.12,8.438,1.43,12.771,1.229c7.88-0.355,9.84-15.85,17.899-6.146
			c3.301,3.979,5.841,6.221,6.341,11.5c0.447,4.735,6.409-2.421,7.229-3.771c6.185-10.1,12.104-5.08,21.381-9.45
			c9.96-4.688,12.054,4.563,16.882,10.54c9.368,11.62-1.223,13.54-7.737,20.58c-5.94,6.42-2.29,13.65,0.97,21
			c2.41,5.435,8.04,15.24,14.729,8.721c0.486,0.439,0.938,0.909,1.381,1.395c1.83-2.271,4.271-2.94,8.486-1.181
			c0.594,3.365-3.276,4.171-2.447,7.771c5.421,2.24,12.776,5.95,15.182,11.7c2.01,4.8-0.352,9.89,0.14,14.83
			c3.45,1.05,9.04-1.49,11.923-3.2c4.317-2.57,2.479-8.76,9.38-7.36c6.277,1.271,7.317-3.654,9.777-7.88
			c0.95-1.62,2.16-2.699,3.54-3.43c-0.188-4.29-3.027-7.8-3.067-12.9c-0.053-6.09,10.188-11.26,14.921-13.119
			c15.092-5.931,25.579,6.079,34.75,16.229c8.921-2.17,12.938-9.354,6.229-16.9c-6.159-6.93-10.22-11.88,0.649-16.54
			c4.487-1.93,10.131-6.02,15.188-5.944c-0.97-2.313-2.35-4.476-4.317-6.396c-0.853-0.83-9.039-5.71-8.96-4.37
			c-0.317-5.43,1.353-11.92-3.763-15.72c-3.539-2.64-7.158-3.771-7.539-8.859c-0.561-7.271,10.96-19.25,2.33-24.721
			c-9.229-5.854-18.271,2.57-27.931,1.2c-12.41-1.76-12.021,2.812-12.63,13.26c-0.979,0.41-2.711,0.49-3.78,0.13
			c-4.659-9.655-8.409-23.21-8.479-33.979c-0.021-2.63,0.422-5.32,2.063-7.47c1.95-2.57,4.2-1.32,6.04-3.24
			c2.812-2.931,1.562-9.01,7.358-9.29c2.67-6.603,4.5-9.021,4.182-16.47c-4.521-0.4-7.92-3.711-12.609-3.87
			c-1.979-0.063-4.08,0.2-6.131,0.688c-2.3,0.563-4.55,1.41-6.51,2.461C865.461,661.75,861.35,667.69,855.711,671.82z"/>
		<path fill="#D0E6CA" stroke="#FFFFFF" stroke-width="2" d="M937.197,780.979c-10.87,4.671-6.81,9.605-0.646,16.535
			c6.71,7.563,2.698,14.74-6.23,16.9c-9.16-10.15-19.646-22.16-34.75-16.229c-4.72,1.851-14.97,7.021-14.92,13.115
			c0.04,5.104,2.88,8.61,3.07,12.9c3.42-1.8,7.87-1.37,11.83-1.11c0.688,3.4-10.813,9.711-12.36,13.346
			c-3.25,7.615,9.521,6.59,13.26,6.54c5.2-0.07,13.11-1.214,16.45,3.96c4.04,6.25-0.76,11.67-4.314,16.479
			c-4.48,6.05-3.79,14.354-8.24,20.53c-4.313,5.99-9.66,8.396-8.57,16.83c1.7,13.12,8.58,31.66,19.771,39.354
			c0.484-6.314-0.58-12.979,0.88-19.039c5.729-3.771,14.55-8.921,21.525-5.801c4.439,1.99,2.689,9.146,4.489,12.9
			c5.5,0.67,9.61,3.12,13.87-1.854c3.71-4.328,4.353-5.316,10.86-3.852c9.62,2.181,19.71-1.3,29.31,1.859
			c8.83,2.906,12.46,12.906,12.57,21.578c0.09,8.027-14.91,11.353-10.604,21.103c-3.104,1.029-7.077,1.949-10.077,3.76
			c2.857-1.67,14.633,11.189,16.479,13.189c3.55,3.856,1.51,6.261-1.82,7.801c8.896,1.09,17.88,1.641,24.61-1.301
			c4.2-1.841,7.43-6.529,9.7-10.313c4.314-7.171,10.71-2.261,17.26-4.58c6-2.119,9.87-5.221,16.58-3.561
			c8.47,2.1,9.33-5.859,16.6-6.9c6.771-0.96,8.7-4.59,13.19-9.188c5.854-6,13.58-9.685,19.35-15.65c4.53-4.68,8.08-8,14.521-9.79
			c6.75-1.87,12.5-4.64,15.8-11.188c2.64-5.25,3.979-10.685,7.31-15.631c0.96-1.421,2.25-2.818,3.65-4.224
			c3.41-3.408,7.45-6.83,8.771-10.605c1.541-4.395,5.028-8.359,5.291-13.063c0.343-6.159,2.197-12.979,1.979-19.04
			c-0.229-6.237-6.14-7.35-10.74-9.46c-4.33-1.979-7.604-7.55-8.14-12.25c-5.88,1.62-12.62,0.45-16.4-4.699
			c-3.26-4.438-1.438-10.25-4.29-14.539c-2.6-3.92-11.75-3.729-15.67-4.142c-9.27-0.95-12.26,0.603-13.63,9.22
			c-12.86,0.79-24.07-0.85-36.15,3.685c-4.71,1.771-8.97-3.439-12.92-5.222c-4.71-2.133-10.08-3.103-15.21-3.271
			c-12.04-0.4-24.71-3.12-36.71-1.46c-12.55,1.737-15.53-6.12-23.355-14.63c-4.104-4.462-8.619-7.61-13.109-11.553
			c-2.59-2.271-4.44-5.188-6.55-7.897c-0.976-1.24-1.99-2.438-3.17-3.5c-1.61-1.45-3.386-2.021-5.23-2.05
			C947.325,774.96,941.689,779.05,937.197,780.979z"/>
		<path fill="#D0E6CA" stroke="#FFFFFF" stroke-width="2" d="M561.68,798.94c0.38,4.34-3.43,7.47-5.13,11.05
			c6,4.146,10.71,12.18,16.104,17.34c7.2,6.88,12.86,15.1,20.23,21.86c10.564,9.688,31.646,14.56,25.79,31.83
			c-1.313,3.85-2.42,8.21,0.229,11.81c2.29,3.11,5.146,5.43,3.74,9.77c-2.563,7.96,0.55,12.28,3.21,19.96
			c2.061,5.966,9.65,5.186,15.32,7.54c0.29,0.12,0.564,0.25,0.85,0.396c5.891-4,13.13-8.01,19.391-9.271
			c5.289-1.06,7.055,2.516,11.521,3.83c3.91,1.16,9.07-0.09,13.109-0.064c8.945,0.06,15.471,2.896,22.405,8.396
			c6.29,4.98,8.476,9.7,10.306,15.74c1.88-1.35,3.71-2.84,5.438-3.97c3.104-2.04-2.59-7.516-2.55-9.854
			c0.25-13.479,19.33,3.69,20.08-7.945c0.68-10.563,4.147-11.359,11.39-3.635c6.4,6.845,15.091,4.65,20.94,13.104
			c10.43,15.08,3.75-15.44,4.27-19.011c1.556-10.729,14.24-16.909,18.936-26.354c5.89-11.87,10.688-24.45,16.907-36.107
			c3.5-6.577,12.103-17.893,0.867-21.973c0.99-3.34,4.555-4.738,6.48-7.39c1.76-2.43,2.55-5.42,3.646-8.17
			c0.804-2.01,1.608-3.66,2.578-4.87c-0.438-0.48-0.89-0.95-1.38-1.39c-6.688,6.51-12.315-3.306-14.729-8.726
			c-3.264-7.35-6.91-14.58-0.974-21c6.521-7.04,17.104-8.96,7.738-20.58c-4.817-5.979-6.908-15.229-16.88-10.54
			c-9.28,4.37-15.2-0.646-21.38,9.45c-0.83,1.354-6.79,8.511-7.229,3.771c-0.5-5.271-3.04-7.521-6.342-11.5
			c-8.06-9.7-10.021,5.774-17.896,6.146c-4.328,0.2-8.408-2.34-12.771-1.229c-4.021,1.026-7.26,4.14-11.16,5.55
			c-10.328,3.72-21.6,0.72-32.01,3.66c-2.891,0.815-4.04,3.64-6.22,5.479c-3.271,2.75-8.91,1.69-12.74,1.32
			c-6.188-0.603-16.562-2.932-18.819,4.85c-2.681,9.24-1.881,16.78-13.75,16.99c-9.367,0.17-4.979,18.63-18.141,11.602
			c-3.92-2.092-9.09-2.021-12.66-4.407c-4.04-2.711-2.42-7.563-5.55-10.854c-4.62-4.85-5.22,9.07-9.642,7.46
			c-4.96-1.8-3.592-10.52-10.778-9.896c-0.17,2.729-0.04,5.56-0.2,8.31c-10.021,1.95-14.29-3.896-22.568-6.521
			c-0.75,0.381-1.236,0.771-1.562,1.171C558.447,794.06,561.447,796.24,561.68,798.94z"/>
		<path fill="#D0E6CA" stroke="#FFFFFF" stroke-width="2" d="M1000.841,984.01c-1.841-2.01-13.61-14.854-16.48-13.188
			c3-1.802,6.97-2.726,10.08-3.766c-4.3-9.75,10.7-13.064,10.604-21.1c-0.104-8.67-3.739-18.67-12.569-21.58
			c-9.59-3.16-19.69,0.313-29.313-1.856c-6.511-1.474-7.146-0.479-10.855,3.852c-4.261,4.979-8.37,2.53-13.87,1.85
			c-1.8-3.76-0.05-10.908-4.49-12.896c-6.97-3.13-15.79,2.025-21.528,5.8c-1.461,6.061-0.392,12.71-0.881,19.04
			c-11.188-7.7-18.065-26.24-19.771-39.36c-1.09-8.438,4.26-10.84,8.566-16.83c4.448-6.188,3.75-14.479,8.238-20.525
			c3.563-4.813,8.36-10.229,4.32-16.479c-3.34-5.17-11.25-4.028-16.45-3.96c-3.74,0.05-16.51,1.07-13.26-6.54
			c1.55-3.63,13.05-9.938,12.354-13.34c-3.97-0.26-8.404-0.688-11.826,1.107c-1.384,0.729-2.604,1.813-3.538,3.433
			c-2.476,4.22-3.5,9.146-9.78,7.88c-6.9-1.398-5.063,4.79-9.38,7.359c-2.88,1.711-8.48,4.25-11.92,3.196
			c-0.49-4.938,1.867-10.026-0.146-14.829c-2.396-5.762-9.76-9.46-15.18-11.697c-0.83-3.592,3.04-4.395,2.45-7.771
			c-4.224-1.76-6.66-1.1-8.49,1.183c-0.97,1.212-1.78,2.869-2.58,4.869c-1.1,2.75-1.88,5.738-3.649,8.171
			c-1.931,2.647-5.479,4.052-6.479,7.393c11.229,4.08,2.64,15.392-0.87,21.97c-6.22,11.66-11.01,24.25-16.91,36.109
			c-4.688,9.449-17.38,15.62-18.93,26.352c-0.521,3.569,6.16,34.103-4.271,19.011c-5.841-8.447-14.525-6.261-20.938-13.102
			c-7.24-7.729-10.71-6.931-11.391,3.63c-0.75,11.644-19.845-5.528-20.079,7.95c-0.04,2.341,5.646,7.818,2.55,9.852
			c-1.73,1.131-3.563,2.62-5.44,3.973c0.7,2.311,1.36,4.811,2.17,7.602c2.104,7.199,3.936,13.801,10.83,18.051
			c7.53,4.648,16.83-4.051,24.594-5.092c10.25-1.368,20.512-0.356,30.722,0.842c10.09,1.188,38.21,1.852,32.64,18.83
			c4.37,2.647,7.91,7.25,13.145,8.29c7.688,1.538,7.261,1.011,12.146,6.817c3.08,3.659,8.11,7.211,8.16,12.5
			c0.03,3.909-2.94,9.029-7.4,8.75c-0.93,5.971,3.055,6.893,5.381,11.433c3.674,7.158-10.931,21.5-16.896,23.511
			c-6.44,2.17-12.8,3.979-19.38,5.688c-4.512,1.17-8.78,6.063-13.75,5.188c-2.341-4.357-3.58-9.448-6.934-13.21
			c-2.856-3.21-6.816-5.091-9.852-8.102c-3.398,3.818-7.78,12.988-14.46,11.029c-3.352-0.979-8.08-5.95-11.479-2.229
			c-5.391,5.894-4.71,23.172-5.605,30.382c-0.58,4.682-0.721,16.897-5.261,19.893c-2.805,1.851-10.75,3.971-13.843,2.237
			c-1.671-0.932-2.062-2.721-2.816-4.289c-7.87,8.671-8.854,15.539,0.97,23.521c5.92,4.812,8.642,3.771,15.68,4.812
			c6.475,0.961,11.225,6.541,17.9,6.841c0.819,4.949,0.79,10.392-1.729,14.892c-2.184,3.893-6.434,7.053-5.271,12.063
			c11.63,5.859,19.08,12.092,14.649,26.013c1.355,0.277,2.771,0.459,4.195,0.563c3.98,0.29,8.16-0.09,12.146-1.16
			c3.89-1.04,7.564-2.72,10.646-5.063c3.04-2.313-3.33-7.237,0.131-10.67c3.939-3.91,9.384-9.278,15.229-9.513
			c0.63-7.317-1.33-6.789,4.3-12.646c4.44,2.972,8.43,6.813,11.75,6.521c2.11-0.181,3.95-2.028,5.46-6.858
			c3.58-11.431,20-4.729,23.3-18.521c1.211-5.063-2.81-5.489-4.42-9.188c-1.43-3.291,0.94-7.198-0.815-10.342
			c-5.75-10.261-13.699,6.541-16.21,8.819c-7.069,6.42-11.645-10.33-13.521-13.29c-1.71-2.7-5.438-2.66-5.188-6.41
			c0.392-5.988-2.898-8.102-5.158-13.34c4.688-6.17,7.38-9.08,14.71-12.28c3.63-1.579,7.06-3.539,9.354-6.88
			c1.78-2.59,2.58-8.568,7-8.21c2.83,0.229,4.884,3.183,7.396,4.222c3.776,1.563,7.979-0.632,11.026-2.75
			c5.344-3.722,8.318-11.527,13.448-14.479c5.37-3.08,4.896,8.479,5.974,10.67c3.867,7.813,9.117,0.682,10.026-4.063
			c0.46-2.42,3.563-15.147,7.63-10.157c3.5,4.3,12.436,10.85,9.771,17.3c5.39,3.107,10.85,6.148,17.53,5.068
			c0.938-17.858,25.39-2.513,30.8-14.013c0.146-0.317,0.27-0.646,0.37-0.979c1.8-5.854-3.842-12.66-0.896-19.354
			c1.49-3.381,2.7-6.812,2.79-10.562c0.07-3.063-4.01-8.62-0.76-10.858c-2.71-7.632-11.74-1.892-16.65-0.422
			c-5.646,1.689-16.146,1.342-20.21-3.578c7.04-6.102,21.62-3.33,30.186-5.422c12.56-3.061,23.578-10.92,36.34-13.447
			c2.1-0.421,5.6-1.092,8.27-2.317C1002.35,990.271,1004.39,987.87,1000.841,984.01z"/>
		<path fill="#D0E6CA" stroke="#FFFFFF" stroke-width="2" d="M708.461,933.39c-6.94-5.484-13.461-8.34-22.41-8.396
			c-4.04-0.03-9.2,1.22-13.11,0.064c-4.47-1.314-6.24-4.89-11.52-3.827c-6.266,1.263-13.5,5.271-19.396,9.271
			c-0.34,0.229-0.68,0.46-1.01,0.7c-1.18,0.815-2.3,1.64-3.34,2.42c-3.95,2.99-12.08,13.5-17.684,10.72
			c-7.906-3.93-12.539-10.62-21.882-12.25c-3.698-0.646-17.22,0.32-11.25,7.34c5.94,6.98,3.24,9.98-2.396,15.646
			c-6.396,6.396,2.229,20.146,2.34,27.25c0.106,6.275-9.19,10.01-6.771,16.1c2.555,6.45,14.439,3.66,15.063,9.813
			c3.43,1.172,3.68,5.762,7.688,6.342c2.634,0.38,4.699-4.12,8.345-3.354c3.33,0.7,5.6,11.45,3.938,11.54
			c3.01-0.17,13.74,4.646,11.67,8.771c-5.06,10.104-15.54-3.521-20.854-5.37c-4.556-1.59-16.94,5.93-13.104,10.88
			c3.313,4.26,15.54,5.729,11.19,13.59c-1.92,3.471-10.32,8.24-9.146,13.19c0.12,0.52,0.354,1.04,0.7,1.56
			c1.25,1.86,5.07,0.94,6.86,2.685c2.688,2.601,3.83,6.565,5.658,9.735c5.802,10.12,9.438,0.515,16.932,0.2
			c10.67-0.438,21.26,2.12,31.896,2.104c0.184-2.974-0.012-6.028,0.198-8.979c11.842,1.4,11.513-15.891,10.313-24.03
			c-7.23-0.3-14.4,1.631-21.62,1c-5.4-0.47-4.144-5.8,0.527-6.396c7.567-0.96,7.063,0.986,12.147-4.37
			c4.229-4.45,11.722-4.894,17.433-4.5c5.619,0.39,10.688,4.67,15.75,4.91c4.631,0.22,9.42-6.9,11.698-10.37
			c2.933-4.474,2.699-8.4,7.933-10.98c4.271-2.104,12.352-1.868,15.171,2.66c-2.683,2.59-5.933,4.61-6.854,8.5
			c-0.938,3.95,1.398,8.16-0.229,12.011c-1.319,3.145-4.921,4.369-5.069,8.145c-0.16,4.1,1.99,7.89,1.438,12.026
			c-0.631,4.749-2.261,8.12-0.607,12.974c0.852,2.5,2.54,6.47,0.107,8.579c-1.5,1.301-1.051,4.209-2.131,6.067
			c-1.88,3.25-5.789,6.778-5.328,10.892c4.852,3.222,6.896,6.182,13.271,6.052c2.41-0.052,5.83-0.54,8.029,0.83
			c0.87,0.539,1.381,1.316,1.778,2.159c0.763,1.567,1.147,3.355,2.818,4.287c3.091,1.724,11.039-0.396,13.841-2.237
			c4.528-2.989,4.67-15.209,5.262-19.893c0.898-7.21,0.222-24.487,5.607-30.381c3.398-3.721,8.131,1.25,11.479,2.229
			c6.67,1.961,11.051-7.21,14.46-11.029c3.028,3.012,7,4.892,9.853,8.102c3.357,3.771,4.59,8.854,6.931,13.21
			c4.973,0.87,9.239-4.011,13.75-5.188c6.569-1.71,12.938-3.521,19.382-5.688c5.971-2.012,20.567-16.352,16.897-23.512
			c-2.33-4.54-6.313-5.46-5.382-11.431c4.45,0.28,7.432-4.853,7.399-8.75c-0.052-5.289-5.08-8.853-8.159-12.5
			c-4.893-5.813-4.461-5.279-12.148-6.818c-5.229-1.051-8.771-5.647-13.142-8.289c5.562-16.979-22.551-17.648-32.643-18.83
			c-10.211-1.198-20.471-2.21-30.721-0.842c-7.763,1.04-17.063,9.74-24.591,5.092c-6.894-4.25-8.722-10.852-10.829-18.052
			c-0.813-2.79-1.473-5.29-2.171-7.601C716.93,943.09,714.75,938.37,708.461,933.39z"/>
		<path fill="#D0E6CA" stroke="#FFFFFF" stroke-width="2" d="M625.859,922.57c-2.66-7.69-5.77-12-3.21-19.96
			c1.4-4.354-1.45-6.67-3.74-9.771c-2.646-3.6-1.54-7.96-0.229-11.81c5.854-17.271-15.22-22.146-25.79-31.83
			c-7.37-6.761-13.03-14.99-20.23-21.86c-5.396-5.16-10.104-13.188-16.104-17.34c1.7-3.58,5.51-6.71,5.13-11.05
			c-0.24-2.7-3.23-4.88-1.58-6.88c-0.021-0.266-0.03-0.53,0.021-0.813c0.367-2.229,5.287-6.81,6.487-9.22
			c2.78-5.61,1.472-12.98,4.563-18.021c2.774-4.539,7.63-4.039,3.947-10.234c-3.5-5.91,3.577-14.5,2.277-21.38
			c-4.92,1.63-11.84,6.364-17.14,3.77c-7.73-3.8-3.104-18.56-3.29-25.149c-0.29-10.229,4.78-18.961,5.39-28.971
			c0.563-9.1-6.55-9.58-13.814-9.56c-6.08,0.02-8,0.43-5.885-5.66c1.79-5.15,4.119-10.07,6.159-15.12
			c1.686-4.13,3.063-16.58,1.12-20.96c-0.8-1.81-2.12-3.25-3.438-4.69c-9.225,1.53-18.479,2.95-27.829,2.95
			c-6.15,0-12.82-0.75-18.921,0.25c-3.063,0.5-5.979,3.396-9.171,2.83c-0.961,2.91-0.521,8.94-4.014,10.396
			c-3.58,1.5-6.06,1.146-6.486,5.88c-0.884,9.63-2.923,18.63-5.698,27.92c-3.186,10.646-5.604,11.438-16.013,6.854
			c-8.329-3.654-11.229,4.896-19.013,3.91c-7.438-0.938-12.12-8.38-18.479-11.58c-3.631-1.814-7.75-1.949-10.804,1.021
			c-3.21,3.14-8.262,2.25-12.356,2.12c-5.021-0.17-36.682,3.01-35.21,9.938c1.2,5.66,4.066,12.33-4.54,7.72
			c-6.971-3.729-12.7-10.75-17.09-17.17c-4.9-7.17-11.08-11-19.82-7.27c-3.25,1.39-5.355,4.91-8.58,6
			c-2.271,0.77-5.67-0.5-8.105-0.33c-5.88,0.398-14.79,1.39-18.395,6.82c-2.406,3.654-2.71,8-5.406,11.654
			c-2.909,3.962-4.829,7.806-5.883,12.634c-1.236,5.712-9.486,33.038-0.211,35.856c-1.235,1.53-2.391,2.54-3.539,3.182
			c0.648,0.368,1.329,0.729,2.039,1.038c15.271,6.806,34.729,0.313,47.21,12.73c5.08,5.06,10.73,13.53,3.674,19.647
			c-5.134,4.438-0.609,15.027,1.896,19.938c-3.221,2.34-8.71,2.78-9.971,7.189c-0.939,3.301,0.391,6.761,0.37,10.131
			c-0.015,1.146-0.171,2.276-0.632,3.396c2.697,1.19,5.771,0.936,8.617,1.24c3.95,0.43,6.87,3.21,10.69,3.813
			c2.59-8.117,17.188-11.883,24.06-7.157c9.26,6.35,13.09,19.27,22.73,26.157c0.854-1.513,1.694-2.697,1.438-4.671
			c4.97-0.619,9.09-5.026,14.3-4.462c4.15,0.462,6.37,4.49,9,7.16c7.33,7.44,13.57-7.5,15.95-0.81
			c1.53,4.317-1.55,8.92,0.645,13.157c1.905,3.683,5.511,7.093,9.271,8.817c4.36,2,7.2-0.729,9.03-4.619
			c2.67-5.681-1.54-7.979-1.521-13.237c5.28-0.328,7.69,0.521,10.304,5.052c1.421,2.46,3.026,4.1,4.921,6.18
			c2.866,3.15,1.131,7.141,2.775,10.7c1.23,2.64-5.025,6.76-1.938,11.13c4.21,5.95,8.524,8.45,6.774,16.84
			c-0.67,3.23-16.38,23.591-1.21,15.91c4.095-2.069,6.135-0.83,8.19,2.08c2.6,0.07,5.31,0.311,8.17,0.76
			c11.11,1.763,20.89,3.563,32.17,1.551c11.33-2.021,22.69-6.351,34.23-3.131c10.774,3.016,19.25,9.87,30.05,12.48
			c5.31,1.29,8.739,4.49,13.479,6.71c3.063-1.5,8.354-1.65,10.46-1.28c9.345,1.63,13.976,8.32,21.884,12.25
			c5.602,2.78,13.729-7.729,17.682-10.72c1.029-0.78,2.159-1.603,3.34-2.42c0.05-0.36,0.11-0.72,0.16-1.09
			C635.51,927.75,627.921,928.53,625.859,922.57z"/>
		<path fill="#D0E6CA" stroke="#FFFFFF" stroke-width="2" d="M355.649,1161.3c-4.11-9.66-18.59-10.63-11.75-23.22
			c5.063-9.32,9.313-16.53,8.69-27.62c-0.271-4.79-2.32-10.66,1.34-14.66c4.29-4.688,12.396-2.854,17.89-2.604
			c6.354,0.29,10.271-0.686,13.104-6.854c2.3-5.01,2.96-11.04-1.32-15.01c-3.71-3.45-9.51-3.563-12.26-8.33
			c-2.5-4.33-1.16-10.21-0.82-14.91c0.36-5.08,0.3-10.026,3-14.51c2.66-4.41,7.5-7.271,8.76-12.58
			c1.41-5.938-2.188-10.34-5.58-14.81c-2.905-3.843-6.75-11.556-11.234-13.686c-5.78-2.729-31.096,9.04-22.48-4.76
			c4.19-6.71,7.01-11.04,1.271-17.93c-4.186-5.03-8.75-7.354-6.5-14.7c7.47-0.58,4.68-8.91,5.26-13.82
			c0.93-7.776,1.18-13.146,7.41-18.04c5.42-4.26,7.446-6.54,1.646-12.51c-6.63-6.83-25.775-14.229-25.355-24.688
			c0.2-5.106,2.841-10.682,3.291-16.062c0.444-5.28,1.484-11.34,4.75-15.75c3.72-5.021,8.854-4.05,14.024-6.71
			c5.021-2.59,6.96-9.12,12.37-10.521c4.563-1.182,8.03-0.039,11.761-0.521c-4.396-6.12-8.101-12.84-14-16.892
			c-6.881-4.724-21.471-0.962-24.061,7.158c-3.83-0.602-6.738-3.382-10.688-3.812c-2.854-0.313-5.935-0.063-8.62-1.24
			c0.46-1.106,0.63-2.25,0.63-3.397c-4.34,2.619-8.869,5.013-13.63,6.5c-6.59,2.063-12.54,0.527-19.189,0.723
			c-18,0.51-4.04,17.71-12.851,22.938c-6.109,3.631-13.939,2.145-20.04,6.015c-5.102,3.235-7.352,6.616-13.521,8.479
			c-4.852,1.46-7.788,4.87-10.711,8.521c1.185,0.72,2.172,2.52,2.859,5.985c1.5,7.554-10.188,8.989-8.64,15.895
			c1.311,5.85,8.438,10.01,12.38,13.986c5.351,5.398,4.59,12.934,7.29,19.79c-1.092,0.278-1.53,1.104-2.96,0.829
			c2.51,1.881,3.75,5.939,6.8,7.079c2.62,0.972,5.688-0.63,8.351-0.47c-7.487,14.04-24.29,1.57-33.761,12.357
			c-6.688,7.633-17.1,26.397-6.062,34.013c20.762,14.312,57.021,5.63,63.04,37.856c4.688,0.844,9.262-1.771,13.027,2.148
			c-3.141,7.262-1.101,16.301-4.011,24.142c-2.229,6.021-7.569,10.5-3.18,16.813c2.979,4.277-3.399,15.04-7.563,16.938
			c-4.479,2.054-8.58-3.771-12.811-0.642c-5.649,4.188-1.021,10.24,3.181,12.938c4.31,2.771,6.739,5.041,6.35,10.448
			c-0.8,11.183-4.18,24.42-6.688,35.313c-1.699,7.356-4.279,13.021-0.46,20.188c3.051,5.709,5.631,9.828,3.971,16.471
			c-1.221,4.893-4.181,10.933-1.067,15.738c3.171,4.894,8.812,2.435,12.777,5.329c3,2.19,2.149,10.11,4.01,13.45
			c2.935,5.26,8.12,8.58,13.805,10.229c12.43,3.619,25.646,3.328,34.181-6.852c4.67-5.568,3.896-10.313,7.146-16.318
			c2.63-4.87,8.7-5.238,13.396-6.771c1.77-0.58,3.604-1.013,5.46-1.42C354.149,1178.68,359.39,1170.09,355.649,1161.3z"/>
		<path fill="#D0E6CA" stroke="#FFFFFF" stroke-width="2" d="M615.075,1022.75c1.66-0.09-0.6-10.84-3.938-11.54
			c-3.65-0.77-5.72,3.72-8.34,3.35c-4.021-0.58-4.266-5.17-7.69-6.34c-0.62-6.16-12.51-3.354-15.06-9.81
			c-2.41-6.09,6.88-9.813,6.77-16.104c-0.12-7.1-8.729-20.85-2.34-27.25c5.65-5.654,8.34-8.654,2.4-15.64
			c-2.57-3.021-1.53-4.92,0.79-6.05c-4.74-2.21-8.175-5.42-13.48-6.71c-10.8-2.62-19.27-9.475-30.05-12.48
			c-11.54-3.22-22.91,1.11-34.23,3.13c-11.274,2.016-21.06,0.226-32.17-1.55c-2.854-0.45-5.56-0.7-8.17-0.76
			c-2.06-2.91-4.104-4.15-8.188-2.08c-15.171,7.68,0.54-12.68,1.21-15.91c1.75-8.39-2.57-10.89-6.78-16.84
			c-3.08-4.36,3.18-8.479,1.938-11.13c-1.654-3.57,0.096-7.55-2.774-10.7c-1.896-2.07-3.5-3.72-4.92-6.18
			c-2.62-4.53-5.021-5.38-10.306-5.053c-0.024,5.263,4.19,7.553,1.521,13.237c-1.83,3.896-4.67,6.62-9.03,4.62
			c-3.76-1.729-7.354-5.14-9.27-8.818c-2.19-4.229,0.89-8.842-0.646-13.156c-2.368-6.69-8.618,8.25-15.944,0.81
			c-2.636-2.67-4.854-6.7-9-7.16c-5.21-0.564-9.32,3.83-14.306,4.46c0.266,1.96-0.58,3.16-1.438,4.673
			c-3.5-2.5-6.23-5.789-8.73-9.277c-3.729,0.479-7.196-0.66-11.76,0.52c-5.41,1.4-7.35,7.94-12.37,10.521
			c-5.17,2.659-10.31,1.688-14.029,6.71c-3.271,4.396-4.311,10.47-4.75,15.75c-0.445,5.37-3.086,10.938-3.286,16.06
			c-0.41,10.46,18.729,17.86,25.355,24.69c5.8,5.979,3.771,8.26-1.646,12.51c-6.23,4.89-6.48,10.271-7.41,18.04
			c-0.58,4.91,2.21,13.25-5.265,13.82c-2.25,7.35,2.319,9.67,6.5,14.694c5.729,6.896,2.909,11.226-1.271,17.936
			c-8.61,13.8,16.71,2.026,22.479,4.76c4.488,2.12,8.328,9.83,11.238,13.68c3.38,4.476,6.99,8.86,5.58,14.813
			c-1.26,5.31-6.1,8.17-8.76,12.58c-2.7,4.479-2.643,9.43-3,14.51c-0.33,4.7-1.67,10.58,0.819,14.91
			c2.75,4.77,8.54,4.89,12.261,8.33c4.279,3.97,3.62,10,1.317,15.01c-2.828,6.17-6.737,7.14-13.103,6.85
			c-5.49-0.25-13.59-2.076-17.891,2.61c-3.659,4-1.609,9.88-1.342,14.66c0.618,11.09-3.632,18.3-8.688,27.62
			c-6.83,12.59,7.64,13.56,11.75,23.22c3.74,8.79-1.5,17.38,1.46,25.66c4.649-1.03,9.38-1.92,13.352-4.551
			c6.539-4.344,11.789-4.399,19.289-6.039c8.289-1.804,11.771-0.37,10.975,8.92c-0.61,7.08,2.46,13.479,5.06,19.856
			c3.104,7.578,6.07,7.804,12.41,11.263c1.021,0.551,1.58,1.511,1.88,2.641c2.04-0.67,4.01-1.53,5.84-2.78
			c4.12-2.8,7.686-6.27,12.69-7.46c2.08-6.275-0.021-20.64-1.973-26.97c-2.867-9.29-0.021-19.931-4.5-28.431
			c-11.143-21.109,11.461-3.554,19.027-9.38c-1.06-2.395-4.698-11.069-1.29-13.174c1.521-0.931,9.58-5.396,8.73-7.287
			c-1.763-3.948-8.32-3.014-11.4-4.684c-4.79-2.58,0.19-9.22,3.24-10.681c5.688-2.729,5.97-5.149,6.18-11.271
			c0.2-5.829,4.771-7.18,9.342-8.315c0.608-0.149,1.224-0.303,1.818-0.449c5.54-1.42,8.399-6.432,13.46-8.57
			c6.011-2.55,10.07,3.189,15.79,3.381c11.893,0.399,14.143-11.118,24.182-13.921c9.764-2.72,22.898,5.37,28.644-6.09
			c2.43-4.851,7.79-18.312,15.146-10.42c5.884,6.3,0.729,18.55,1.159,26.063c7.32,0.853,10.82-4.632,15.91-8.671
			c3.521-2.791,8.08-5,12.79-6.159c-1.181-4.96,7.22-9.723,9.14-13.188c4.344-7.859-7.89-9.32-11.188-13.591
			c-3.841-4.949,8.55-12.472,13.1-10.88c5.313,1.851,15.79,15.486,20.86,5.369C628.819,1027.38,618.091,1022.58,615.075,1022.75z"/>
		<path fill="#D0E6CA" stroke="#FFFFFF" stroke-width="2" d="M1146.615,919.33c2.646-5.24,3.979-10.681,7.313-15.63
			c0.959-1.42,2.25-2.82,3.646-4.228c0.002,0.007,0.01,0.01,0.012,0.011c0.006-0.011,0.01-0.016,0.015-0.021
			c3.411-3.408,7.45-6.83,8.771-10.604c1.539-4.396,5.029-8.36,5.289-13.063c0.346-6.159,2.201-12.979,1.979-19.04
			c-0.069-1.926-0.688-3.354-1.634-4.487c-2.138-2.488-5.913-3.473-9.065-4.922c-1.633-0.742-3.114-2.005-4.357-3.526
			c-2.062-2.521-3.47-5.777-3.812-8.71c-5.534,1.512-11.801,0.561-15.665-3.836c-0.261-0.293-0.509-0.604-0.744-0.928
			c-3.261-4.438-1.438-10.25-4.291-14.538c-0.151-0.229-0.33-0.438-0.524-0.646c-3.153-3.205-11.422-3.071-15.104-3.446
			c-9.271-0.946-12.262,0.604-13.631,9.228c-12.859,0.772-24.063-0.86-36.147,3.68c-2.771,1.041-5.391-0.335-7.875-2.005
			c-2.244,0.848-4.823,7.938-4.823,10.385c0,2.527-4.327,5.776-7.22,6.859c-2.889,1.083-2.522,4.688-0.724,7.22
			c1.805,2.526,1.441,5.054-1.083,5.054c-2.526,0-4.332-0.354-5.775,1.812c-1.438,2.166-1.083,6.137,1.812,6.854
			c2.889,0.728,1.438,3.975,0.354,5.06c-1.083,1.081-3.972,4.688-6.498,6.854c-2.521,2.166-2.889,9.39-2.889,9.39
			s-5.055-0.357-8.304,0c-3.249,0.358-1.811,5.773-1.083,7.939c0.722,2.166,2.166,8.303,0.355,10.469
			c-1.806,2.166-2.889,5.776-1.806,7.226c1.083,1.438,2.889,5.055,2.521,8.304c-0.358,3.249-8.304,7.22-10.104,7.22
			s-6.497,2.167-8.303,4.333c-1.789,2.146-5.336,4.994-5.396,5.042c2.159,4.024,3.162,8.842,3.219,13.313
			c0.016,0.76-0.111,1.476-0.351,2.153c-1.741,5.204-9.608,8.521-10.864,14.063c-0.32,1.449-0.188,3.051,0.614,4.878
			c-0.006,0.001-0.012,0.003-0.017,0.005c0.003,0.005,0.005,0.01,0.007,0.018c-3.076,1.025-6.986,1.94-9.979,3.7
			c3.011-1.358,14.559,11.248,16.388,13.229c3.552,3.854,1.513,6.26-1.817,7.8c8.89,1.09,17.878,1.641,24.604-1.299
			c4.189-1.851,7.403-6.527,9.687-10.302c1.082-1.797,2.291-2.832,3.602-3.416c3.936-1.771,8.767,0.563,13.686-1.18
			c6-2.117,9.868-5.221,16.581-3.561c2.373,0.588,4.146,0.386,5.636-0.232c3.312-1.389,5.188-4.84,9.062-6.198
			c0.584-0.206,1.221-0.365,1.902-0.471c1.689-0.236,3.079-0.646,4.282-1.188c3.599-1.646,5.521-4.543,8.886-7.987
			c5.854-6,13.57-9.68,19.354-15.65c3.396-3.513,6.248-6.259,10.186-8.168c1.313-0.638,2.745-1.183,4.355-1.632
			c2.105-0.584,4.117-1.256,5.986-2.104C1140.936,926.541,1144.354,923.826,1146.615,919.33z"/>
		<path fill="#D0E6CA" stroke="#FFFFFF" stroke-width="2" d="M1223.239,330.69c0.3,2-0.83,4.67,1.29,5.98
			c4.98,3.09,10.08,0.63,13.78-3c-3.78,3.71,16.569,10.24,17.229,12.58c0.188,0.69-5.215,3.82-5.689,4.9
			c-1.95,4.36,2.14,9.24-0.9,13.55c-2.14,3.03-7.29,2.82-10.479,3.76c-6.38,1.88-11.73,6.57-18.75,4.62
			c-1.58,4.56-2.98,8.36-5.38,12.38c7.46,5.47,6.16,9.56,8.729,17.42c6.761,0.44,13.71-0.24,20.47,0.2
			c-0.27,7.16,5.541,12.26,4.87,19.15c4.671,0.08,7.99,0.86,11.88,3.6c-3.229,2.23-12.405,3.91-12.024,9.15
			c0.63,8.64,5.854,14.19,4.47,23.75c-4.62,0.67-9.67,0.49-14,2.46c-6.357,2.896-5.271,9.564-9.811,13.42
			c-4.015,3.41-5.055,13.37-10.12,13.3c1.681,1.85,3.431,3.64,5.315,5.32c5.15,4.59,12.11-1.87,17.854-2.15
			c5.881-0.29,11.091,3.7,16.971,1.92c6.021-1.82,9.63-6.26,15.858-1.729c4.421,3.22,8.961,7.75,12.382,12.024
			c6.524,8.186,9.35,27.45,24.159,20.3c0.625-0.302,1.25-0.473,1.877-0.563c0.147-0.374,0.332-0.76,0.563-1.167
			c3.291-5.813,13.24-0.05,18.41-1.99c6.438-2.42,12.57-9.46,17.45-14.18c6.699-6.48,9.05-16.94,15.29-24.186
			c5.63-6.524,12.09-12.285,17.566-18.96c4.358-5.299,11.079-14.99,3.698-20.77c-8.396-6.58,0.65-4.84,6.563-6.9
			c4.5-6.24,4.8-15.39,7.238-22.55c2.512-7.36,4.817-14.72,6.642-22.29c1.909-7.95,3.71-15.97,6.54-23.67
			c2.369-6.45,6.72-11.91,8.97-18.34c3.063-8.74,1.939-14.51,1.74-23.26c-0.171-7.062,1.63-14.34,1.561-21.55
			c-0.099-11.03,2.089-21.277,4.701-31.592c-1.508,0.113-3.263-0.078-5.332-0.646c-3.96-1.09-8.81,2.45-11.84,1.35
			c-3.311-1.2-1.54-4.83-1.979-7.36c-0.649-3.67-2.313-7.07-4.021-10.43c-1.22,0.22-2.438,0.41-3.66,0.54
			c-4.18,0.46-4.979-3.08-8.18-4.39c-3.75-1.53-7.04,1.22-10.48,2.14c-4.485,1.19-8.479-1.09-12.938-1.11
			c-5.84-0.02-12.063,0.85-17.881,1.45c-9.84,1.03-16.539-5.16-26.279-3.66c-4.49,0.69-8.94,0.92-13.479,0.93
			c-3.311,0-9.646-2.89-12.551-0.81c1.36,1.78,1.979,3.66,2.229,5.9c3.438,1.4,13.851,3.6,11.619,9.33
			c-4.858,2.32-10.398,1.51-14.979,0.22c-0.5,3.43,3.15,4.89,4.01,7.89c-2.83,2.07-7.75,8.05-11.04,8.52
			c-4.93,0.7-10.54-3.21-13.97-6.31c-6.29-5.67-3.67-18.21-11.42-22.25c-1.32-0.68-2.87-0.69-4.563-0.25
			c-7.027,1.83-16.447,11.52-21.25,13.58c-4.729,2.04-9.729,3.66-14.12,6.41c-6.021,3.78-3.618,6.95-4.671,12.85
			c-4.012,0.46-16.316,5.47-18,8.68c-4.447-0.28-10.539,0.87-12.079,5.79c-1.487,4.75,2.643,7.94-0.577,12.43
			c-0.476,0.66-0.962,1.31-1.44,1.95c4.75,3.31,9.57,6.09,14.69,6.94C1212.189,322.35,1222.02,322.65,1223.239,330.69z"/>
		<g>
			<path fill="#D0E6CA" stroke="#FFFFFF" stroke-width="2" d="M1446.529,101.42c-0.529-6.07-6.17-10.04-9.66-14.46
				c-3.629-4.603-5.188-10.587-6.648-16.245c-1.057,0.32-2.104,0.642-3.154,0.974c0.021,0.058,0.046,0.113,0.068,0.171
				C1430.801,81.52,1431.97,102.7,1446.529,101.42z"/>
			<path fill="#D0E6CA" stroke="#FFFFFF" stroke-width="2" d="M1124.819,240.18c2.45,0.17,27.17,0.32,20.53-7.16
				c-2.2-2.48-7.37-4.08-7.09-8.18c0.229-3.4,3.43-5.3,2.83-9.07c5.77-1.09,7.64,6.67,12.396,8.08c6.42,1.91,8.5-9.43,14.563-10.35
				c5.14-0.79,14.85-0.35,19.42,2.3c1.55,0.9,1,3.56,2.27,4.94c2.021,2.188,6.4,1.87,9,1.35c0.36-1.94,0.36-4.15,0.354-6.17
				c2.274,0.2,12.024-1.01,13.5-2.94c4.33-5.66,1.396-13.88,5.196-19.89c2.474,0.49,2.368,2.43,3.021,4.31
				c1.188,3.47,6.08,2.18,8.75,2.38c0.71,2.62,1.88,5.15,2.9,7.82c3.18,0.84,17.646-0.93,17.118,4.7
				c-0.368,3.92-7.844,4.76-6.264,8.03c2.65,5.52,2.04,10.55,2.44,16.56c4.67,0.13,9.646-0.13,14.064,1.66
				c6.95,2.82,2.58,7.25,3.306,12.42c0.076,0.57,0.18,1.15,0.3,1.73c1.688-0.44,3.25-0.43,4.56,0.25
				c7.75,4.04,5.133,16.58,11.424,22.25c3.432,3.09,9.052,7.01,13.972,6.31c3.29-0.47,8.21-6.45,11.04-8.52
				c-0.86-3-4.521-4.46-4.012-7.89c4.576,1.29,10.116,2.1,14.979-0.22c2.229-5.74-8.18-7.93-11.62-9.33
				c-0.25-2.24-0.87-4.12-2.229-5.9c2.896-2.08,9.234,0.81,12.55,0.81c4.54,0,8.99-0.24,13.479-0.93
				c9.74-1.5,16.436,4.688,26.28,3.66c5.82-0.61,12.04-1.48,17.88-1.45c4.473,0.02,8.46,2.3,12.94,1.11
				c3.438-0.91,6.729-3.66,10.479-2.14c3.2,1.3,4,4.85,8.186,4.39c1.21-0.13,2.43-0.32,3.659-0.54
				c-2.674-5.24-5.464-10.37-4.699-16.24c0.68-5.29,3.51-10.01,4.029-15.35c0.275-2.82-1.329-6.54,0.271-9.15
				c3.7-6.05,9.09,4.37,12.38-3.54c1.381-3.33,10.28-1.44,13.2-2.12c3.09-0.72,6.142-1.656,9.265-2.155
				c1.548-11.857,6.979-23.986,10.916-34.675c4.659-12.63,9.473-26.83,4.88-40.27c-1.091-3.19-8.88-17.15-7.04-20
				c-5.641,8.74-12.011,0.29-15.92-6.37c-4.448-7.6-8.91-13.32-17.791-15.46c-4.93-1.19-10.688-4.67-15.81-3.9
				c-3.28,0.5-5.604,1.56-8.44-0.53c-0.709-0.521-2.193-1.995-3.854-3.335c-4.645,1.044-8.712,2.527-9.917,4.875
				c-1.438,2.79,0.921,5.56-3.38,6.82c-3.422,1-7.063-0.02-10.514-0.25c-0.196-7-4-15.05,0.014-20.41
				c-2.04-3.87-8.645-0.11-11.109,1.24c-4.96,2.69-7.279,3.82-12.96,2.39c-4.521-1.14-7.53,1.64-4,6.04
				c2.38,2.96,6.84,3.14,10.29,3.39c0.5,2.64-0.54,5.24,1.91,7.24c-6.13,3.34-11.87,3.34-16.78,9.45
				c-2.05,2.54-6.37,9.71-2.357,12.32c-3.647-1.59-6.021,4.88-8.5,5.48c-1.198,5.77-2.5,13.35-5.552,18.52
				c-2.606,4.42-10.541,4.07-14.479,8.59c-9.013,10.33-21.319,1.44-30.223,9.24c-5.986,5.25-4.722,2.52-11.5,0.59
				c-3.012-0.86-5.75,2.75-7.882,4.26c-10.938,7.75,8.78,15.51,14.15,19.89c-3.562,7.84-11.101,6.17-16.49,2.64
				c-6.52-4.271-17.89-0.35-15.38-12.33c1.563-7.44-5.88-17.2-13.29-10.77c-2.91,2.52-5.66,6.2-9.021,8.07
				c-2.771,1.54-6.041,0.56-8.899,2.02c-17.83,9.07-13.892-23.5-25.021-24.8c-7.63-0.89-16.196,0.32-23.906,0.34
				c-4.382,0.01-8.895,0.32-12.989,1.99c-4.04,1.65-7.33,4.87-12.03,4.26c0.319,3.77,10.819,7.27,14.262,8.54
				c1.788,10.53-1.979,19.65,11.013,18.48c-0.359,7.95-3.159,13.36-11.21,14.25c-5.479,0.6-13.869,2.94-18.199,6.39
				c-7.45,5.94-9.16,18.53-15.84,25.86c-2.9,3.18-6.69,0.97-9.921-2.26c-0.739,2.38-1.145,4.73-0.529,6.7
				C1100.881,239.45,1117.655,239.67,1124.819,240.18z"/>
		</g>
		<path fill="#D0E6CA" stroke="#FFFFFF" stroke-width="2" d="M1402.285,238.31c-0.76,5.87,2.03,11,4.7,16.24
			c1.71,3.35,3.37,6.75,4.021,10.43c0.438,2.53-1.33,6.16,1.979,7.36c3.03,1.1,7.88-2.44,11.84-1.35
			c2.064,0.568,3.816,0.76,5.322,0.648c1.358-5.368,2.83-10.754,4.158-16.278c1.62-6.76,0.84-16.82,4.565-22.59
			c3.555-5.48,2.75-11.04,2.24-17.3c-0.252-3.116-0.101-6.286,0.315-9.474c-3.119,0.5-6.173,1.435-9.271,2.154
			c-2.92,0.68-11.816-1.21-13.197,2.12c-3.278,7.91-8.684-2.51-12.383,3.54c-1.601,2.61,0.013,6.33-0.271,9.15
			C1405.785,228.3,1402.97,233.02,1402.285,238.31z"/>
		<path fill="#D0E6CA" stroke="#FFFFFF" stroke-width="2" d="M878.197,655.92c2.053-0.5,4.145-0.76,6.13-0.69
			c4.689,0.15,8.095,3.465,12.609,3.87c0.33,7.45-1.51,9.88-4.18,16.475c-5.803,0.275-4.553,6.355-7.359,9.29
			c-1.841,1.921-4.08,0.671-6.04,3.235c-1.631,2.15-2.065,4.845-2.061,7.475c0.065,10.775,3.811,24.315,8.479,33.979
			c1.08,0.36,2.8,0.28,3.779-0.13c0.609-10.438,0.221-15.021,12.63-13.26c9.66,1.369,18.69-7.063,27.931-1.2
			c8.634,5.47-2.88,17.45-2.33,24.72c0.395,5.092,4.015,6.222,7.54,8.86c5.109,3.81,3.439,10.3,3.765,15.72
			c-0.08-1.34,8.105,3.54,8.96,4.37c1.97,1.92,3.351,4.08,4.315,6.39c1.854,0.03,3.62,0.604,5.229,2.054
			c1.181,1.062,2.2,2.262,3.17,3.5c3.28-1.409,7.03-1.474,10.61-3.448c6.438-3.57,1.35-11.99,6.56-16.04
			c11.66-9.063,25.36-1.79,28.641-19.381c5.21,3.101,8.604,9.04,15.225,9.33c6.05,0.261,8.815-6.5,1.97-8.149
			c-0.62-3.3,3.83-6.357,6.971-5.778c-0.58,12.771,29.25,17.63,35.729,10.479c5.355-5.92,18.196-13.438,26.479-13.25
			c4.222,0.101,7.644,3.211,11.761,3.211c3.859,0,7.079-3.563,10.329-5.222c4.239-2.17,9.063-2.934,12.939-5.778
			c2.949-2.17,5.681-4.102,9.511-4.229c3.829-0.132,14.959,9.948,17.38,3.593c2.21-5.803-1.817-13.271-2.58-19.053
			c-0.311-2.352-2.355-6.197-1.38-8.521c1.369-3.24,5.934-2.104,8.021-4.49c-2.87-3.681-9.46-4.47-9.935-9.931
			c-0.396-4.609,5.271-6.09,6.069-10.159c17.82,1.45,3.359-16.511,5.351-24c10.609-2.49,22.435,9.688,32.223,11.779
			c6.262,1.33,11.58,1.561,16.041,6.721c2.696,3.13,5.438,8.2,9.737,9.352c9.854,2.643,13.528-9.052,19.854-12.521
			c5.46-3-2.262-11.671-1.859-18.063c-0.041-0.012-0.08-0.021-0.119-0.027c-6.33-1.723-1.869-5.71,2.434-5.449
			c0.479-2.961-1.021-7.261,2.236-8.67c3.354,1.21,3.869,7.146,7.563,8.562c6.801,2.59,2.16-8.96,0.7-10.688
			c-2.37-2.813-7.882-9.552-11.063-10.989c-2.681-1.221-11.647,0.489-14.449,0.642c0.329,1.358,0.764,2.909,1.342,4.33
			c2.722,0.858,5.29,4.893,4.488,8.011c-2.472,0.222-14.979,9.052-13.352-0.301c-6.79-0.881-0.642-11.58,0.448-14.841
			c2.029-6.091-6.17-16.396-0.34-21.188c8.816-7.25,5.198,12.561,5.66,14.561c2.551,11.131,6.88,2.479,13.432,3.449
			c-0.143,0.881,0.59,2.607,0.351,3.647c4.909,1.028,14.521-7.182,7.603-10.407c-5.148-2.399-10.882,3.301-15.552-0.189
			c-4.672-3.5,1.393-5.141,4.25-5.931c0.893-2.689,3.434-6.843,7.354-5.803c0.63,5.318,5.448,13.632,11.277,10.434
			c4.521-2.479,11.289-6.66,12.897,2.54c-2.141,1.97-6.54,2.601-9.147,3.197c-1.553,5.053,2.521,14.683,5.563,18.381
			c5.08-3.802,6.512-8.568,12.801-11.289c4.399-1.899,3.439-5.109,5.802-6.961c1.764-1.386,7.112,4.021,11.875,7.854
			c0.711-3.259,1.462-6.517,2.296-9.774c0.74-2.896,1.777-5.606,2.977-8.222c-1.505-0.459-3.197-0.813-4.636-1.688
			c-0.319-4.25-0.301-8.854-0.021-13.11c-0.051,0.738,4.826,1.67,10.902,3.241c2.647-4.566,5.262-9.182,7.096-14.32
			c4.762-13.329,12.291-24.856,20.172-36.511c3.381-4.989,15.302-13.21,12.92-20.26c-7.551,0.479-9.551,10.521-17.278,11.438
			c-4.976,0.599-14.405-0.896-11.666-7.64c-0.619,0.09-1.233,0.261-1.854,0.561c-14.813,7.159-17.63-12.106-24.16-20.301
			c-3.42-4.279-7.947-8.811-12.38-12.029c-6.229-4.526-9.84-0.091-15.858,1.729c-5.881,1.78-11.103-2.21-16.972-1.92
			c-5.737,0.29-12.698,6.738-17.851,2.146c-1.892-1.682-3.642-3.479-5.319-5.316c-1.028-0.012-2.229-0.434-3.659-1.42
			c-6.979-4.83-12.432-2.645-20.658-3.843c-4.183-0.607-7.342-1.647-11.393,0.159c-4.107,1.841-8.188,4.012-12.511,1.398
			c-8.012-4.853-16.512-7.26-22.949-14.5c-6.801-7.67-12.09-14.07-23.141-13.95c-10.24,0.12-39.063-10.77-45.699,2.35
			c-3.489,6.89,8.459,31.149-5.069,32.31c-3,10.26,20.541,7.03,22.682,11.938c-6.407,8.603-8.13,19.853-9.432,30.647
			c-0.511,4.24,3.342,11.05,0.143,14.761c-1.881,2.189-5.869,1.813-8.108,3.974c-6.683,6.448,12.699,11.646,15.682,14.106
			c6.108,5.051-1.329,9.604-5.396,13.313c-6.541,5.96-10.131,6.06-18.211,9.01c-4.881,1.78-8.42,6.29-14.079,5.49
			c-3.229-0.45-6.21-2.633-9.301-0.66c-5.722,3.641-14.313,13.75-16.052,0.851c-1.567-11.699-11.897,1.04-18.551-3.33
			c-8.068-5.301-0.432-11.369-11.789-9.026c-5.729,1.181-13.37,2.091-17.818,6.229c-3.58,3.33-6.159,7.722-10.29,10.461
			c-5.262,3.5-11.631,2.029-17.489,3.149c-6.5,1.237-12.54,4.62-19.13,5.947c-6.58,1.33-13.271,2.04-19.921,2.893
			c-2.989,0.392-10.229,5.08-15.063,5.2c-0.25,3.408,0.881,7.04,1.37,10.97c0.562,4.46,6.301,10.07,3.091,14.54
			c-3,0.58-5.318,2.688-8.238,3.479c-3.762,1.013-7.632,0.857-11.393,2.053c-3.58,1.14-12.131,3.71-9.352,9.14
			C877.51,655.649,877.866,655.78,878.197,655.92z"/>
		<path fill="#D0E6CA" stroke="#FFFFFF" stroke-width="2" d="M967.35,788.49c4.479,3.93,9.01,7.09,13.109,11.55
			c7.826,8.51,10.811,16.37,23.356,14.63c12-1.67,24.67,1.05,36.71,1.46c5.13,0.17,10.5,1.141,15.21,3.271
			c3.949,1.774,8.199,6.984,12.92,5.22c12.095-4.54,23.29-2.9,36.149-3.68c1.37-8.62,4.359-10.176,13.63-9.226
			c3.933,0.4,13.08,0.226,15.671,4.146c2.854,4.29,1.029,10.1,4.29,14.54c3.779,5.146,10.513,6.314,16.399,4.694
			c0.529,4.7,3.811,10.271,8.141,12.25c4.59,2.11,10.512,3.226,10.739,9.46c0.221,6.056-1.642,12.885-1.979,19.04
			c-0.261,4.7-3.75,8.67-5.287,13.063c-1.319,3.777-5.359,7.188-8.771,10.604c1.88,1.4,3.95,1.686,6.15-0.116
			c4.271-3.488,4.64-10.054,11.34-10.568c1.188-0.09,2.277,0.04,3.3,0.31c1.471-1.479,3.17-2.89,5.182-4.21
			c6.063-3.979,13.119-6.55,19.75-9.38c6.212-2.66,7.304-7.97,12.271-11.28c2.59,2.271,6.78,1.726,9.8,0.67
			c0.725-3.404,2.063-14.188-2.275-15.324c-1.514-7.15,30.688-16.4,34.486-18.266c6.449-3.146,15.739-7.56,20.399-13.12
			c3.137-3.751,4.16-8.629,5.932-13.114c-5.262-10.196-4.876-3.938-14.212-5.541c0.271-6.399,3.471-8.395,0.689-15.479
			c-2.739-7.01-5.459-14.04-7.25-21.37c-3.569-14.62-0.592-25.146,4.275-38.778c2.54-7.106-0.06-14.602,1.936-21.788
			c0.938-3.408,2.02-6.608,0.85-10.158c-0.74-2.24-2.71-3.33-1.21-5.83c1.351-2.24,4.399-2.23,6.07-4.104
			c0.535-0.602,0.979-1.352,1.371-2.176c-1.982-0.51-4.022-0.789-6.151-0.624c-1.551,0.12-20.892,6.97-21.24,0.97
			c-0.13-2.314-0.75-5,0.17-7.25c0.805-1.96,3.62-2.27,3.764-4.63c0.222-3.58-5.383-7.13,1.291-8.027
			c3.945-0.527,12.351,3.5,16.459,4.423c3.75,0.84,7.776,2.89,7.658,7.34c0.111,0.026,0.248,0.033,0.365,0.056
			c0.66-2.545,1.412-5.085,2.159-7.628c-3.768-4.29-8.824-8.104-12.446-3.588c-1.04-0.25-3.01-0.88-4.065-1.37
			c-2.063-6.16-8.069-1.1-11.185-4.87c-3.59-4.34-3.46,1.48-6.828,0.88c0.709-7.485-4.5-7.05-10-8.52
			c-0.408,6.39,7.318,15.05,1.858,18.06c-6.319,3.48-10,15.16-19.851,12.521c-4.313-1.15-7.04-6.222-9.739-9.354
			c-4.46-5.157-9.78-5.39-16.04-6.72c-9.79-2.09-21.61-14.28-32.221-11.78c-2,7.49,12.46,25.45-5.354,24
			c-0.8,4.07-6.47,5.555-6.066,10.16c0.472,5.46,7.062,6.24,9.932,9.933c-2.08,2.382-6.65,1.25-8.021,4.487
			c-0.979,2.32,1.066,6.17,1.381,8.521c0.761,5.776,4.789,13.25,2.578,19.05c-2.423,6.356-13.539-3.72-17.382-3.59
			c-3.827,0.13-6.561,2.05-9.511,4.229c-3.88,2.86-8.7,3.61-12.938,5.78c-3.25,1.66-6.473,5.21-10.328,5.22
			c-4.12,0-7.541-3.104-11.764-3.21c-8.277-0.188-21.117,7.33-26.479,13.25c-6.471,7.15-36.313,2.29-35.729-10.479
			c-3.142-0.58-7.592,2.479-6.972,5.775c6.854,1.649,4.091,8.409-1.97,8.149c-6.609-0.29-10.01-6.229-15.222-9.33
			c-3.288,17.59-16.979,10.33-28.644,19.38c-5.22,4.051-0.119,12.472-6.56,16.04c-3.58,1.99-7.33,2.04-10.61,3.45
			C962.906,783.3,964.76,786.22,967.35,788.49z"/>
		<g>
			<path fill="#D0E6CA" stroke="#FFFFFF" stroke-width="2" d="M1269.689,1200.22c3.59-2.34-8.92-9.21-10.6-10.479
				c0.05,0.711-0.23,1.62-0.2,2.351c-4.355,0.854-8.556,1.467-12.621,0.967c1.166,1.812,1.441,3.58,1.468,5.866
				c0.418,0.069,0.836,0.13,1.253,0.207C1254.229,1200.09,1264.75,1203.45,1269.689,1200.22z"/>
			<path fill="#D0E6CA" stroke="#FFFFFF" stroke-width="2" d="M1242.93,1142.75c-4.32-0.4-16.682,0.47-18.83,5.271
				c-3.35,7.489-3.2,19.563,0.97,26.675c3.021,5.143,9.388,8.799,14.586,12.396c2.257,0.871,4.615,1.521,7.234,1.58
				c4.05,0.09,7.57-1.09,11.5-1.438c4.149-0.367,4.62,4.603,8.44,4.342c4.26-0.289,5.034,5.681,7.81,7.776
				c2,1.515,4.76,1.989,7.18,2.229c5.854,0.59,13.07-0.11,17.976-3.66c7.604-5.5,1.42-18.87,2.524-26.58
				c1.5-10.34-1.829-20.068-1.62-30.489c0.476-23.131-0.444-46.971-2.114-70.061c-1.439-19.959-3.181-39.477-3.549-59.398
				c-1.285-0.312-2.402-0.601-3.162-0.762c-3.609-0.771-5.66-8.229-7.554-10.95c-1.021-1.46-2.211-1.47-2.681-3.37
				c-0.479-1.96,2.438-2.3,1.26-4.657c-1.63-3.271-6.986-1.921-9.8-2.053c-0.16-2.146-0.04-4.354-0.2-6.5
				c-2.63-0.51-4.25,1.58-5.065,3.83c-2.189-3.486-10.029-4.38-14.935-6.6c-8.688,1.58-17.06,1.938-21.447,12.279
				c-2.328,5.479-6.238,7.311-1.897,12.657c4.102,5.053-3.391,9.021-1.801,14.17c7.105-0.211,13.341-5.552,20.641-5.552
				c12.354-0.01,1.229,12.063-0.891,16.12c-2.302,4.4-3.62,10.36-4.579,15.221c-1.341,6.729-3.973,3.844-7.932,7.079
				c-3.644,2.98,3.479,8.476-0.304,13.86c-1.938,2.771-7.561,6.05-7.76,9.688c-0.21,3.725,5.85,4.189,6.313,8.354
				c0.551,5.04,1.75,8.72,2.866,13.63c0.935,4.09-3.979,5.67-3.157,9.147c1.541,6.567,16.841-0.867,18.143,7.973
				c0.396,2.75-4.171,9.489-4.83,12.561C1245.171,1132.6,1243.841,1137.63,1242.93,1142.75z"/>
			<path fill="#D0E6CA" stroke="#FFFFFF" stroke-width="2" d="M1178.301,961.88c4.35,1.66,8.84,2.69,13.646,1.854
				c6.396-1.104,12.9,0.234,18.53-3.24c5.7-3.521,10.063-5.23,14.65-10.271c4.8-5.274,13.985-5.024,19.646-1.42
				c4.19,2.67,8.98,1.08,13.261,3.104c8.185-6.46,12.489,4.14,19.381,3.688c1.014-7.354,4.608-7.986,10.884-3.89
				c2.41,1.575,5.146,3.422,7.89,5.499c-0.429-5.255-0.556-10.493,0.07-16.129c2.479-22.262,2.776-46.17-1.11-68.34
				c-1.76-10.069-5.17-20.449-4.313-30.771c0.803-9.601,2.5-14.05-7.671-16.96c2.358-1.17,6.869-1.69,6.791-5.12
				c-0.12-5.13-3.479-9.82-5.711-14.229c-0.104-0.213-0.209-0.406-0.313-0.605c-1.779,4.498-2.803,9.375-5.938,13.125
				c-4.647,5.563-13.947,9.97-20.397,13.12c-3.802,1.86-36,11.1-34.49,18.26c4.34,1.146,3,11.92,2.28,15.33
				c-3.03,1.05-7.21,1.604-9.801-0.67c-4.974,3.313-6.063,8.63-12.271,11.28c-6.63,2.84-13.688,5.398-19.75,9.38
				c-2.01,1.32-3.71,2.729-5.18,4.21c5.159,1.38,8.42,6.8,12.55,9.91c-2.75-2.07-5.729,9.45-6.063,10.87
				c-1.75,7.438,4.277,14.56,3.197,22.21c-7.188,0.35-4.89,7.43-3.77,12.08c1.75,7.27-3.69,9.58-5.57,15.72
				C1178.529,960.57,1178.39,961.24,1178.301,961.88z"/>
		</g>
		<path fill="#D0E6CA" stroke="#FFFFFF" stroke-width="2" d="M1101.591,1028.521c-0.421,0.424-0.791,0.725-1.186,1.119
			c2.2,6.226,4.21,9.515,4.69,16.631c-0.08-1.235,6.92,3.021,7.46,3.395c3.854,2.68,8.896,10.42,5.01,14.91
			c-4.54,5.234,1.5,6.02,3.87,10.484c3.64,6.87,2.1,15.146,3.67,22.5c10.18,0.75,21.72,3.771,31.2,7.595
			c-8.04,9.601,10,15.771,11.76,24.811c1.54,7.9-5.021,14.63-3.42,22.16c0.63,2.97,1.438,5.47,0.989,8.54
			c-0.239,1.63-2.135,3.41-1.859,4.899c1.41,0.101,14.08,0.341,10.57,4.729c-3.73,4.683-8.385,3.021-8.016,10.04
			c0.094,1.76,0.164,3.507,0.215,5.243c2.834,0.671,5.646,1.438,8.406,2.146c13.271,3.431,10.58-2.174,11.71-11.633
			c0.511-4.312,5.8,0.739,7.261,1.459c4.844,2.383,13.394-1.17,18.819-0.275c-2.399,10.55-22.131-1.33-22.34,13.486
			c6.6,1.184,13.17-0.078,19.84,1.313c5.681,1.181,11.313,2.392,16.938,3.813c6.729,1.694,13.69,1.902,20.541,3.041
			c-0.023-2.282-0.304-4.059-1.471-5.862c-2.949-0.364-5.835-1.313-8.649-3.206c-3.369-2.264-15.318-3.87-15.198-8.08
			c6.637-0.45,11.614,3.146,17.255,5.323c-5.202-3.604-11.586-7.269-14.604-12.413c-4.173-7.104-4.319-19.171-0.974-26.671
			c2.149-4.803,14.5-5.673,18.83-5.271c0.909-5.12,2.239-10.148,3.329-15.229c0.66-3.079,5.229-9.818,4.83-12.563
			c-1.302-8.851-16.603-1.397-18.142-7.971c-0.818-3.479,4.09-5.069,3.158-9.149c-1.119-4.91-2.313-8.59-2.869-13.63
			c-0.459-4.16-6.521-4.631-6.313-8.351c0.21-3.645,5.818-6.922,7.761-9.689c3.779-5.391-3.34-10.88,0.302-13.857
			c3.961-3.238,6.591-0.353,7.932-7.078c0.971-4.859,2.291-10.813,4.58-15.224c2.119-4.061,13.238-16.131,0.891-16.119
			c-7.301,0-13.521,5.353-20.641,5.553c-1.591-5.149,5.909-9.12,1.801-14.17c-4.352-5.354-0.432-7.185,1.898-12.66
			c4.392-10.33,12.771-10.699,21.449-12.279c-2.563-1.17-4.318-2.698-4.041-5.17c0.313-2.688,2.223-4.83,1.672-7.688
			c-0.529-2.75-4.394-1.013-1.859-4.632c3.812-5.471,7.979,6.869,12.119,1.479c2.313-3.01-1.688-9.409-3.238-12.01
			c0.17-0.145,0.33-0.264,0.488-0.395c-4.278-2.021-9.068-0.438-13.26-3.101c-5.672-3.609-14.853-3.854-19.648,1.42
			c-4.592,5.04-8.949,6.75-14.649,10.271c-5.63,3.479-12.13,2.144-18.527,3.239c-4.813,0.83-9.303-0.188-13.648-1.851
			c-0.949,6.761,4.01,10.38-5.602,13.471c-7.479,2.409-6.33,12.779-3.58,18.271c-2.938,3.883-8.159,6.58-12.198,2.909
			c-5.892-5.341-10.58-1.229-17.261-2.851c-8.354-2.021-13.829-12.891-22.409-14.271c-3.5-0.561-21.012,12.474-17.882,15.974
			C1109.825,1007.08,1096.8,1015.189,1101.591,1028.521z"/>
		<path fill="#D0E6CA" stroke="#FFFFFF" stroke-width="2" d="M944.43,1016.57c4.92-1.476,13.938-7.21,16.646,0.42
			c-3.26,2.239,0.83,7.8,0.766,10.854c-0.095,3.74-1.306,7.186-2.79,10.563c-2.95,6.68,2.688,13.5,0.89,19.35
			c0.79,0.313,1.563,0.55,2.32,0.7c4.89,0.95,9.96,0.78,14.93,1.71c6.12,1.15,9.65-4.01,14.62-6.33
			c9.24-4.32,24.771,1.391,29.58,10.25c2.46,4.53,3.58,10.682,9.09,12.62c6.73,2.37,9.71-1.46,14.51,5.6
			c3.271,4.806,8.345,10.354,13.342,13.396c2.528,1.54,6.25,2.8,6.974,6.08c1.14,5.209-2.313,9.786-7.04,11.22
			c-6.07,1.84-7.063,6.67-10.58,11.311c-3.3,4.344-2.69,11.569,3.99,12.594c4.146,0.641,8.21-1.563,12.396-1.149
			c1.57,6.92-5.83,5.22-9.78,7.188c-4.97,2.472-1.71,14.25-2.1,18.683c-0.77,8.646-6.83,15.88-7.22,24.47
			c-0.433,9.432,5.14,18.45-3.3,26.102c-9.07,8.229,12.63,5.514,14.38,5.368c3.396-0.276,12.314,3.99,11.01,8.291
			c-2.07,6.771-10.83,1.399-14.603,4.109c-7.737,5.562,4.867,10.568,8.567,11.05c8.351,1.091,14.603,2.035,21.435,6.46
			c1.027-4.353,2.801-8.391,5.061-11.438c3.68-4.963,7.68-8.685,9.6-14.78c1.69-5.392,2.08-11.392,5.672-16.011
			c4.738-6.109,12.828-6.449,19.634-8.619c6.38-2.03,11.229-6.689,17.05-9.771c8.699-4.604,18.008-3.425,27.078-1.273
			c-0.057-1.732-0.125-3.479-0.223-5.231c-0.366-7.02,4.279-5.356,8.015-10.04c3.5-4.39-9.17-4.63-10.57-4.729
			c-0.27-1.49,1.62-3.271,1.86-4.9c0.446-3.067-0.36-5.567-0.99-8.54c-1.59-7.529,4.96-14.26,3.42-22.16
			c-1.76-9.04-19.8-15.21-11.76-24.81c-9.48-3.82-21.021-6.841-31.2-7.591c-1.565-7.359-0.03-15.645-3.67-22.5
			c-2.37-4.475-8.399-5.25-3.87-10.489c3.895-4.49-1.146-12.229-5.01-14.91c-0.53-0.37-7.54-4.63-7.46-3.39
			c-0.479-7.12-2.49-10.41-4.69-16.633c0.396-0.397,0.75-0.697,1.186-1.117c-4.79-13.32,8.238-21.44-2.23-33.133
			c-3.13-3.487,14.396-16.527,17.881-15.973c8.58,1.38,14.063,12.261,22.41,14.271c6.685,1.604,11.369-2.5,17.261,2.85
			c4.039,3.66,9.264,0.96,12.198-2.91c-2.75-5.487-3.89-15.87,3.58-18.27c9.61-3.091,4.65-6.71,5.601-13.475
			c0.094-0.641,0.229-1.311,0.439-2.011c1.88-6.13,7.319-8.45,5.569-15.72c-1.119-4.641-3.42-11.729,3.771-12.08
			c1.07-7.65-4.949-14.78-3.199-22.21c0.329-1.42,3.319-12.94,6.063-10.87c-4.13-3.109-7.395-8.53-12.551-9.91
			c-1.021-0.27-2.109-0.396-3.304-0.31c-6.71,0.53-7.078,7.08-11.34,10.566c-2.199,1.804-4.261,1.514-6.146,0.118
			c-1.4,1.4-2.689,2.805-3.65,4.226c-3.33,4.944-4.67,10.39-7.312,15.63c-3.303,6.55-9.053,9.314-15.803,11.188
			c-6.438,1.79-9.986,5.11-14.521,9.79c-5.78,5.974-13.5,9.65-19.354,15.65c-4.486,4.6-6.42,8.229-13.188,9.188
			c-7.271,1.029-8.13,9-16.604,6.899c-6.709-1.66-10.576,1.438-16.578,3.563c-6.552,2.317-12.938-2.593-17.263,4.579
			c-2.275,3.778-5.5,8.474-9.696,10.313c-6.729,2.949-15.724,2.396-24.608,1.3c-2.67,1.229-6.17,1.899-8.271,2.32
			c-12.761,2.52-23.776,10.39-36.341,13.447c-8.56,2.093-23.14-0.683-30.18,5.422C928.285,1017.91,938.785,1018.26,944.43,1016.57z"
			/>
		<path fill="#D0E6CA" stroke="#FFFFFF" stroke-width="2" d="M392.961,1919.26c7.194,4.895,31.81,15.03,30.13,26.16
			c21.46-5.61,35.854,13.59,57.2,13.55c5.535-0.01,10.3-1.16,15.77,0.4c3.79,1.08,8,2.67,11.99,1.6c6.88-1.84,3.14-7.195,4.6-11.985
			c0.979-3.229,3.607-5.556,4.838-8.625c-3.092-1.177-6.169-2.354-9.218-3.534c-6-2.33-2.93-4.686-3.229-9.516
			c-0.189-2.959,0.688-5.438,1.035-8.325c0.465-3.725-1.89-5.949-2.51-9.395c5.16-2.06,11.935-0.35,16.41-4.438
			c-8.32-11.37-16.688-21-18.12-35.771c-0.315-3.25,0.91-10.13-2.315-12.46c-3.409-2.46-8.829-0.699-12.689-2.21
			c-12.57-4.92-2.48-19.37-11.69-25.13c-5.04-3.146-1.365-8.99-5.1-12.97c-2.69-2.87-7.11-3.29-10.76-3.79
			c-6.38-0.86-9.686-3.971-15.396-6.2c-5.75-2.25-10.84-7.188-16.64-8.608c-5.94-1.446-11.08-6.078-16.44-9.462
			c0.063,0.132,0.135,0.25,0.19,0.37c3.42,7.521,1.2,26.57-10.48,23.604c-4.104-1.04-9.938-6.313-13.354-1.063
			c-3.86,5.934,1.779,11,6.41,14.011c-0.82,4.239-7.021,8.791-9.21,12.689c-1.83,3.26-2.83,6.99-4.71,10.18
			c-2.186,3.71-14.79,3.74-8.19,11.44c3.391,3.949,5.54,12.39-2.25,14.12c-5.938,1.314-12.41-1.62-12.17,7.354
			c-0.05-1.85-6.58,1.49-6.99,2.813c-0.015,0.047-0.021,0.097-0.039,0.145C364.355,1896.12,377.439,1908.718,392.961,1919.26z"/>
		<path fill="#D0E6CA" stroke="#FFFFFF" stroke-width="2" d="M407.947,1698.391c-2.3,5.859-8.54,8.569-10.83,14.359
			c-2.354,5.931-6.59,13.521-11.06,18.11c-3.79,3.88-11.05,4.81-6.64,11.77c3.604,5.7,5.85,11.42,8.88,17.41
			c5.42,10.721,17.35,17.561,22.524,28.51c5.36,3.381,10.5,8.012,16.44,9.461c5.8,1.42,10.89,6.359,16.64,8.609
			c5.7,2.22,9.016,5.33,15.396,6.2c3.658,0.5,8.064,0.92,10.76,3.79c3.729,3.979,0.06,9.815,5.1,12.97
			c9.2,5.76-0.88,20.21,11.69,25.13c3.859,1.51,9.28-0.25,12.688,2.21c3.229,2.33,2,9.21,2.319,12.46
			c1.431,14.771,9.8,24.391,18.12,35.771c-4.47,4.09-11.25,2.38-16.41,4.438c0.62,3.44,2.971,5.67,2.511,9.393
			c-0.355,2.893-1.229,5.368-1.04,8.327c0.313,4.83-2.771,7.19,3.229,9.516c3.049,1.182,6.126,2.357,9.218,3.53
			c0.081-0.197,0.174-0.396,0.242-0.604c17.64-5.181,36.359-6.063,53.859-11.28c7.141-2.13,14.021-6.737,19.406-11.816
			c5.069-4.778,0.649-11.979,8.015-15.408c7.76-3.62,15.485-7.013,23.17-10.896c4.987-2.524,9.56-5.77,14.528-8.34
			c2.736-1.41,6.037-1.39,8.342-3.688c1.894-1.896,2.773-3.854,4.104-5.625c-1.419-0.354-2.883-0.724-4.441-1.061
			c-5.25-1.14-11.264,2.78-16.014,0.2c-3.688-2-7.947-5.66-10.947-8.64c-3.673-3.65-1.633-7.15,0.513-10.771
			c2.92-4.96-4.62-8.22-5.476-12.816c-1.56-8.408,0.674-17.354-1.47-25.658c-1.09-4.24-5.66-5.37-7.62-8.976
			c-3.14-5.734-2.39-10.81-7.274-15.814c-8.604-8.82,1.38-14.59,5.51-22.96c4.397-8.935,3.72-24.146,0.33-33.28
			c-4.011-10.818,13.13-11.87,10.22-22.24c-1.438-5.119-5.97-8.52-8.49-13.025c-3.29-5.882-7.14-11.594-12.52-15.75
			c-3.13-2.423-7.11-2.975-9.28-6.489c-1.92-3.11-4.1-6.99-7.91-7.99c-3.7-0.97-8.77,1.01-12.024-1.22
			c-3.91-2.67-2.07-9.262-1.82-13.104c5.91-1.262,8.21-7.592,2.52-11.118c-4.789-2.979-5.289-3.898-2.75-9.078
			c2.461-5.03,1.396-11.25,6.806-14.634c1.814-1.131,4.155-0.286,5.92-1.656c3.444-2.673-0.42-6.396-0.17-9.514
			c-5.436-0.276-12.016,2.448-16.98,0.979c-0.62-9.37,1.32-13.16,5.74-21.563c3.068-5.841,8.6-13.25,13.938-5.229
			c4.66,7,18.771,3.1,25.521,2.08c8.27-1.261,13.54-7.42,13.28-15.5c-0.04-1.07,0.22-2.021,0.656-2.83
			c-2.196-1.55-3.892-3.431-7.196-3.57c-3.29-0.14-6.5,0.422-9.804-0.04c-6.182-0.88-11.722-4.618-16.938-7.79
			c-13.729-8.328-26.641-7.774-42.03-10.59c-5.486-1-14.39-0.29-16.42-6.065c-1.066-3.039-1.75-7.149-3.62-9.813
			c-3.25-4.62-8.76-9.25-14.39-10.46c-6.433-1.38-5.66,4.393-6.433,8.84c-4.688,1.75-12.013,3.78-16.933,2.521
			c-3.38-8.5-13.277-18.04-22.13-20.57c-7.14-2.04-15.13-0.96-21.58-4.66c-0.26,3.71-0.317,7.434-0.39,10.92
			c-0.063,3.46-0.4,8.271-3.61,10.436c-2.646,1.79-6.26,1.29-8.33,4.064c-4.27,5.7-7.42,11.53-5.104,18.23
			c2.92,8.479-3.883,18.856-7.03,26.396c-3.15,7.541,2.72,14.271-3.641,21.054c-4.975,5.301-11.515,9.051-17.739,12.657
			c-0.53,7.521-1.32,10.513-6.146,16.763c-3.896,5.061-10.6,7.471-11.774,14.541c-1.646,9.896,13.479,22.987,18.34,30.709
			C397.501,1677.34,412.711,1686.3,407.947,1698.391z"/>
		<path fill="#D0E6CA" stroke="#FFFFFF" stroke-width="2" d="M572.739,1607.101c-0.25,3.119,3.61,6.829,0.17,9.515
			c-1.76,1.354-4.1,0.52-5.92,1.655c-5.41,3.385-4.34,9.609-6.8,14.635c-2.54,5.188-2.04,6.1,2.75,9.077
			c5.69,3.538,3.39,9.857-2.52,11.118c-0.24,3.841-2.096,10.439,1.814,13.104c3.271,2.229,8.33,0.25,12.03,1.22
			c3.81,1,5.99,4.88,7.91,7.99c2.18,3.52,6.146,4.061,9.276,6.488c5.383,4.172,9.229,9.882,12.521,15.75
			c2.521,4.512,7.05,7.896,8.49,13.026c2.908,10.37-14.23,11.421-10.225,22.24c3.395,9.149,4.069,24.36-0.328,33.28
			c-4.133,8.369-14.107,14.14-5.513,22.96c4.896,5.02,4.146,10.079,7.28,15.814c1.97,3.604,6.54,4.73,7.62,8.976
			c2.13,8.31-0.091,17.25,1.47,25.66c0.854,4.604,8.4,7.854,5.471,12.814c-2.141,3.62-4.171,7.12-0.511,10.771
			c3,2.979,7.261,6.64,10.95,8.64c4.75,2.58,10.76-1.34,16.01-0.2c1.564,0.339,3.032,0.708,4.454,1.063
			c0.888-1.188,1.972-2.289,3.697-3.229c2.63-1.43,5.47-2.438,8.31-3.35c5.86-1.88,12.54-2.802,18.021-5.645
			c7.539-3.896,3.729-12.25,7.105-18.631c3.422-6.446,9.109-11.84,13.883-17.29c8.592-9.814,12.521-31.35,9.236-43.88
			c-3.816-14.58-1.479-28.04,6.32-41.22c2.75-4.65,6.96-9.5,12.898-8.91c6.062,0.601,5.222-9.08,3.566-12.78
			c-0.851-0.276-2.26-0.27-3.119-0.026c0.08,1.619-0.841,2.75-0.852,4.316c-18.898,1.29-3.5-42.8,0.421-51.63
			c8.488-19.14,30.101-41.358,50.729-46.89c2.616-7.188,10.599-12.604,19.788-16.65c-1.681-1.217-3.588-2.094-6.146-2.277
			c-7.67-0.541-11.603-3.199-18.46-6.067c-3.671-1.54-11.859-0.71-13.063-5.73c-1.75-7.3,5.699-14.229,3.921-21.72
			c-11.342,0.91-7.212-20.63-6.979-26c0.43-0.03,0.89-0.04,1.357-0.04c-4.763-1.37-9.579-2.67-14.479-4.062
			c-6.54-1.854-9.91-6.818-14.41-11.479c-3.29-3.41-8.26-6.062-9.356-11.08c-10.842-0.729-29.329-7.25-36.723,4.103
			c-4.051,6.223-5.892,20.553-15.75,19.883c-0.25,4.35-2.841,9.209-5.681,12.407c-2.682,3.021-6.359,1.647-9.229,3.869
			c-3.037,2.354-2.987,7.804-6.577,9.644c-3.188,1.63-6.104,3.66-9.263,5.34c-8.431,4.49-12.972-0.21-14.591-7.88
			c-1.062-5.03-6.87-4.38-8.841-0.75c-0.438,0.812-0.688,1.76-0.659,2.829c0.261,8.078-5.011,14.237-13.278,15.5
			c-6.75,1.027-20.869,4.921-25.521-2.079c-5.341-8.021-10.869-0.61-13.938,5.229c-4.407,8.398-6.357,12.188-5.737,21.563
			C560.739,1609.55,567.31,1606.81,572.739,1607.101z"/>
		<g>
			<path fill="#D0E6CA" stroke="#FFFFFF" stroke-width="2" d="M1074.405,1542.021c3.79,3.055,5.41,7.975,10.78,7.439
				c7.03-0.7,11.87,0.05,18.53,2.73c12.64,5.09,22.896,11.604,34.39,18.774c3.98,2.49,13.12,12.604,17.802,11.33
				c0.398-5.26-14.146-14.63-17.512-18.069c-4.35-4.445-9.21-8.391-13.699-12.688c-2.301-2.2-10.181-6.54-9.681-10.432
				c0.34-2.592,10.359-20.488-2.49-13.438c-10.025,5.51-20.43,12.521-32.54,10.82l0.5,0.5
				C1078.319,1538.82,1075.649,1540.271,1074.405,1542.021z"/>
			<path fill="#D0E6CA" stroke="#FFFFFF" stroke-width="2" d="M1191.689,1510.66c-5.24,0.83,0.3,7.91,1.811,9.42
				C1192.365,1518.96,1199.279,1509.47,1191.689,1510.66z"/>
			<path fill="#D0E6CA" stroke="#FFFFFF" stroke-width="2" d="M1094.47,1579.56c5.18-0.76,7.71-9.09,1.04-8.81
				C1089.89,1570.979,1087.779,1580.55,1094.47,1579.56z"/>
			<path fill="#D0E6CA" stroke="#FFFFFF" stroke-width="2" d="M749.785,1504.05c2.646,2.721,7.86,1.971,11.186,1.46
				c10.438-1.58,18.89-3.43,23.2,8.813c3.734,10.63,4.484,18.42-3.4,27.54c-4.53,5.237-14.4,3.14-20.979,3.188
				c-0.471,0-0.931,0.021-1.355,0.04c-0.22,5.36-4.36,26.91,6.979,26c1.771,7.5-5.67,14.42-3.92,21.721
				c1.2,5.021,9.396,4.189,13.063,5.729c6.854,2.87,10.79,5.521,18.46,6.07c2.563,0.182,4.473,1.06,6.156,2.275
				c10.86-4.778,23.427-7.646,30.854-9.229c8.17-1.74,17.354-4.724,25.59-2.16c3.015,0.938,12.87,3.91,7.436-2.38
				c9.3-2.54,30.92,0.065,16.447-12.394c4.433-7.462,27.433-4,28.357-8.382c1.01-4.738,11.34-5.35,14.97-6.025
				c9.604-1.79,19.69-6.015,28.32-10.5c9.93-5.172,20.141,0.801,29.29-4.063c9.03-4.79,17.87-6.39,28.16-4.97
				c5.8,0.8,10.81,4.29,16.63,5.01c5.14,0.643,10.12-1.2,14.97-2.6c4.11-1.19,23.563-0.65,24.145-6.555
				c0.565-5.75-16.689-2.75-19.189-2.471c-6.58,0.729-12.63-0.04-18.29-3.66c-12.05-7.71-22.47-15.96-31.66-26.907
				c-7.43-8.858-14.565-17.683-20.21-27.803c-4.37-7.84-3.67-13.909,0.473-22.09c2.053-4.068,3.723-7.22,3.25-11.979
				c-0.357-3.569-1.173-7.271,0.303-10.729c2.38-5.62,7.646-9.47,9.93-15.13c5.32-13.188,14.188-24.271,23.25-35.069
				c9.12-10.868,16.33-25.921,27.43-34.486c0.604-0.464,1.116-0.943,1.575-1.438c-4.589-2.68-9.261-5.075-14.175-6.561
				c-5.41-1.631-10.03-1.396-13.102-6.881c-2.938-5.271-5.461-11.095-7.318-16.804c-0.42-1.291-1.182-2.5-2.19-3.659
				c-2.316,2.368-6.106,3.514-9.27,4.771c-5.95,2.37-12.771,3.99-17.54,8.55c-2.24,2.144-3.08,5.44-4.9,7.894
				c-2.18,2.932-6.18,3.632-8.276,6.672c2.46,4.1,2.289,9.617,2.852,14.21c0.79,6.51,4.068,13.188,2.818,19.84
				c-7.938,0.39-16.698,6.237-24.37,5.16c0.979-7.186,9.392-8.49,2.132-15.98c-3.58-3.688-3.132-7.55-3.45-12.39
				c-0.357-5.32-5.26-9.262-4.97-14.59c-9.592-0.57-26.882-8.28-33.19,1.896c2.094,3.41,5.474,6.04,6.271,10.16
				c1.038,5.36-0.802,10.53,0.42,16.09c0.811,3.684-0.722,22.421,3.3,23.86c0.05,0.47-0.062,1.38,0.21,1.79
				c3.521,0.229,14.58-2.07,16.854,1.76c2.01,3.38-1.07,7.641-0.37,10.98c1.512,6.72,16.188,21.43,4.591,27.47
				c-8.602,4.479-20.381,2.607-29.479,0.93c-6.301-1.16-8.078,4.4-10.801,8.935c-3.356,5.601-8.488,8.421-12.897,12.959
				c-11.789-15.108-26.857-16.108-43.5-21.948c-4.039-1.42-7.829-3.436-11.853-4.91c-5.102-1.88-10.33-0.609-15.567-0.66
				c-1-0.01-1.882-0.12-2.688-0.29c-1.229,3.57-2.472,7.189-6.29,8.97c-7.352,3.41-6.33,10.87-7,17.791
				c-0.83,8.563-11.779,4.185-16.979,6.883c-3.07,9.729-4.57,12.521-12.763,18.896c-7.278,5.67-16.771,1.16-24.591,5.08
				c-0.58,2.38-1.182,5.12-0.67,7.67C748.671,1495.05,746.64,1500.82,749.785,1504.05z"/>
			<path fill="#D0E6CA" stroke="#FFFFFF" stroke-width="2" d="M1071.43,1567.44c7.92-4.306-4.65-7.063-7.76-6.466
				C1058.819,1561.91,1067.301,1569.68,1071.43,1567.44z"/>
		</g>
		<path fill="#D0E6CA" stroke="#FFFFFF" stroke-width="2" d="M820.06,1107.64c-0.25,3.75,3.479,3.711,5.188,6.41
			c1.885,2.971,6.45,19.721,13.521,13.29c2.51-2.274,10.46-19.079,16.21-8.814c1.76,3.14-0.62,7.05,0.819,10.34
			c1.605,3.71,5.631,4.13,4.421,9.188c-3.29,13.79-19.71,7.091-23.301,18.521c-1.515,4.814-3.354,6.67-5.464,6.855
			c0.344,4.319-5.101,7.399-2.601,11.899c2.28,4.09,7.229,3.71,8.64,9.65c1.45,6.119,0.813,12.88-3.814,17.42
			c-6.73,6.605-14.98,18.63-6.29,27.85c6.33,6.71,17.55-16.3,23-19.25c4.84-2.62,7.659-3.107,9.54-8.607
			c1.646-4.817,5.938-1.683,8.75-0.143c4.21,2.313,9.93,1.94,13.438,5.61c2.921,3.06,1.53,7.83,2.29,11.565
			c10.58,1.529,0.063,23.674,11.9,25.015c4.188-4.813,6.66-5.46,13.355-4.013c3.359,0.729,10.569,2.729,13.063-0.897
			c2.35-3.433,2.05-8.771,5.29-11.603c4.605-4.013,10.72,4.479,12.13,7.979c1.97,4.899,2.271,8.35,8.061,9.569
			c5.619,1.181,9.989,5.327,15.859,3.235c6.49-2.31,9.57,1.15,14.01,5.4c5.313,5.08,13.12,0.8,18.07,5.71
			c5.38,5.35-2.062,7.317-5.65,10c-4.46,3.34-8.8,8.51-10.484,13.89c-3.73,11.841,15.438,13.515,21.984,16.515
			c4.711,2.146,4.725,7.421,4.5,11.906c-0.1,2.069-0.906,3.619-2.104,4.854c1.01,1.146,1.77,2.37,2.188,3.66
			c1.86,5.71,4.381,11.526,7.32,16.8c3.07,5.49,7.688,5.25,13.1,6.88c4.914,1.484,9.588,3.882,14.181,6.563
			c3.584-3.853,3.272-8.646,4.86-13.819c1.859-6.08,7.029-9.33,10.939-13.989c9.59-11.431,16.41-24.55,29.931-31.721
			c3.479-1.84,10.399-5.609,9.313-10.603c-0.881-4.052-6.354-6.052-9.03-8.722c-5.902-5.89-6.796-15.868-4.729-24.579
			c-6.826-4.426-13.071-5.369-21.433-6.461c-3.698-0.479-16.3-5.488-8.567-11.05c3.763-2.7,12.527,2.66,14.603-4.11
			c1.31-4.289-7.61-8.564-11.011-8.289c-1.75,0.145-23.449,2.859-14.382-5.369c8.438-7.646,2.868-16.682,3.303-26.102
			c0.39-8.59,6.447-15.818,7.22-24.47c0.39-4.434-2.87-16.2,2.1-18.684c3.95-1.972,11.354-0.271,9.78-7.188
			c-4.2-0.41-8.25,1.78-12.396,1.147c-6.684-1.021-7.288-8.25-3.988-12.591c3.52-4.642,4.51-9.472,10.58-11.312
			c4.729-1.433,8.188-6.011,7.04-11.22c-0.725-3.28-4.436-4.555-6.975-6.08c-5-3.04-10.065-8.59-13.341-13.396
			c-4.8-7.05-7.778-3.229-14.51-5.6c-5.51-1.931-6.63-8.09-9.09-12.62c-4.813-8.87-20.354-14.57-29.58-10.25
			c-4.96,2.32-8.49,7.49-14.62,6.33c-4.97-0.939-10.04-0.76-14.93-1.71c-0.75-0.15-1.53-0.392-2.32-0.7
			c-0.101,0.33-0.22,0.66-0.37,0.98c-5.41,11.484-29.858-3.854-30.8,14.01c-6.69,1.08-12.144-1.96-17.53-5.07
			c2.65-6.45-6.271-13.01-9.771-17.3c-4.069-4.99-7.17,7.74-7.632,10.16c-0.907,4.739-6.173,11.87-10.027,4.06
			c-1.091-2.188-0.604-13.75-5.973-10.67c-5.132,2.95-8.118,10.76-13.447,14.48c-3.053,2.12-7.25,4.31-11.03,2.75
			c-2.521-1.04-4.57-3.99-7.391-4.221c-4.409-0.359-5.225,5.605-7,8.209c-2.289,3.342-5.729,5.302-9.359,6.882
			c-7.33,3.188-10.021,6.1-14.71,12.274C817.155,1099.54,820.447,1101.65,820.06,1107.64z"/>
	</g>
</g>
<g id="labels">
	<text transform="matrix(1 0 0 1 196.7188 1098.0146)" fill="#010101" font-family="'ArialMT'" font-size="44">Coimbatore</text>
	<text transform="matrix(1 0 0 1 1017.2578 921.0352)" fill="#010101" font-family="'ArialMT'" font-size="44">Ariyalur</text>
	<text transform="matrix(1 0 0 1 1424.3477 257.9072)" fill="#010101" font-family="'ArialMT'" font-size="44">Chennai</text>
	<text transform="matrix(1 0 0 1 1044.8662 786.4365)" fill="#010101" font-family="'ArialMT'" font-size="44">Cuddalore</text>
	<text transform="matrix(1 0 0 1 606.8223 599.9424)" fill="#010101" font-family="'ArialMT'" font-size="44">Dharmapuri</text>
	<text transform="matrix(1 0 0 1 519.812 1178.999)" fill="#010101" font-family="'ArialMT'" font-size="44">Dindigul</text>
	<text transform="matrix(1 0 0 1 409.5288 786.4365)" fill="#010101" font-family="'ArialMT'" font-size="44">Erode</text>
	<text transform="matrix(1 0 0 1 1260.2891 386.9209)" fill="#010101" font-family="'ArialMT'" font-size="44">Kanchipuram</text>
	<text transform="matrix(1 0 0 1 207.6538 1917.0732)" fill="#010101" font-family="'ArialMT'" font-size="44">Kanniyakumari</text>
	<text transform="matrix(1 0 0 1 621.6948 1015.0889)" fill="#010101" font-family="'ArialMT'" font-size="44">Karur</text>
	<text transform="matrix(1 0 0 1 570.2075 416.9229)" fill="#010101" font-family="'ArialMT'" font-size="44">Krishnagiri</text>
	<text transform="matrix(1 0 0 1 593.4038 1323.9053)" fill="#010101" font-family="'ArialMT'" font-size="44">Madurai</text>
	<text transform="matrix(1 0 0 1 1260.29 1013.7422)" fill="#010101" font-family="'ArialMT'" font-size="44">Nagapattinam</text>
	<text transform="matrix(1 0 0 1 606.8223 849.1855)" fill="#010101" font-family="'ArialMT'" font-size="44">Namakkal</text>
	<text transform="matrix(1 0 0 1 153.7773 810.7979)" fill="#010101" font-family="'ArialMT'" font-size="44">Nilgiris</text>
	<text transform="matrix(1 0 0 1 853.1396 862.3018)" fill="#010101" font-family="'ArialMT'" font-size="44">Perambalur</text>
	<text transform="matrix(1 0 0 1 827.7495 1194.7998)" fill="#010101" font-family="'ArialMT'" font-size="44">Pudukkottai</text>
	<text transform="matrix(1 0 0 1 790.2495 1530.0352)" fill="#010101" font-family="'ArialMT'" font-size="44">Ramanathapuram</text>
	<text transform="matrix(1 0 0 1 650.0996 721.1357)" fill="#010101" font-family="'ArialMT'" font-size="44">Salem</text>
	<text transform="matrix(1 0 0 1 722.4805 1379.2393)" fill="#010101" font-family="'ArialMT'" font-size="44">Sivagangai</text>
	<text transform="matrix(1 0 0 1 952.3994 1049.2207)" fill="#010101" font-family="'ArialMT'" font-size="44">Thanjavur</text>
	<text transform="matrix(1 0 0 1 417.5288 1353.9658)" fill="#010101" font-family="'ArialMT'" font-size="44">Theni</text>
	<text transform="matrix(1 0 0 1 593.4038 1659.0479)" fill="#010101" font-family="'ArialMT'" font-size="44">Thoothukudi</text>
	<text transform="matrix(1 0 0 1 718.7402 971.6445)" fill="#010101" font-family="'ArialMT'" font-size="44">Tiruchirappalli</text>
	<text transform="matrix(1 0 0 1 386.7329 1743.0557)" fill="#010101" font-family="'ArialMT'" font-size="44">Thirunelveli</text>
	<text transform="matrix(1 0 0 1 386.7329 1013.7422)" fill="#010101" font-family="'ArialMT'" font-size="44">Tiruppur</text>
	<text transform="matrix(1 0 0 1 924.2207 440.9258)" fill="#010101" font-family="'ArialMT'" font-size="44">Tiruvannamalai</text>
	<text transform="matrix(1 0 0 1 1098.9863 1112.1953)" fill="#010101" font-family="'ArialMT'" font-size="44">Thiruvarur</text>
	<text transform="matrix(1 0 0 1 936.8555 317.9131)" fill="#010101" font-family="'ArialMT'" font-size="44">Vellore</text>
	<text transform="matrix(1 0 0 1 984.4629 647.04)" fill="#010101" font-family="'ArialMT'" font-size="44">Villupuram</text>
	<text transform="matrix(1 0 0 1 496.812 1493.8398)" fill="#010101" font-family="'ArialMT'" font-size="44">Virudhunagar</text>
	<text transform="matrix(1 0 0 1 1231.0244 197.6348)" fill="#010101" font-family="'ArialMT'" font-size="44">Thiruvallur</text>
</g>
</svg>
